<svg width="200" height="200" viewBox="0 0 200 200" fill="none" xmlns="http://www.w3.org/2000/svg">
<path d="M66.4 124.412V86.7535H68.4442V92.6776C68.6857 92.4152 68.9087 92.1364 69.1117 91.8432C69.947 90.1093 71.2593 88.6494 72.8947 87.6346C74.5301 86.6199 76.4209 86.0923 78.3455 86.1139C83.0041 85.9748 86.7866 87.6992 89.0116 91.8432C90.4273 94.4176 91.2064 97.2934 91.2838 100.23C91.3612 103.167 90.7347 106.08 89.4566 108.725C87.3845 113.37 82.267 115.679 76.788 114.83C75.0829 114.685 73.4414 114.115 72.0131 113.173C70.5848 112.23 69.4152 110.945 68.6111 109.435V124.412H66.4ZM68.4442 100.076C68.625 101.911 68.6945 103.219 68.9031 104.498C69.7097 109.532 72.6856 112.522 77.3581 113.064C79.5521 113.425 81.8032 113.013 83.7279 111.9C85.6525 110.787 87.1316 109.041 87.913 106.959C88.8109 104.818 89.243 102.511 89.1807 100.19C89.1183 97.8689 88.563 95.5878 87.5514 93.4981C86.7173 91.6324 85.2988 90.0888 83.5101 89.1004C81.7214 88.1119 79.6597 87.7324 77.6362 88.019C75.7365 88.1567 73.9268 88.8828 72.4589 90.0966C70.9909 91.3103 69.9376 92.9513 69.4455 94.7914C69.0099 96.532 68.6756 98.2964 68.4442 100.076V100.076ZM132.983 105.193C132.673 107.845 131.411 110.293 129.431 112.084C127.452 113.874 124.889 114.885 122.22 114.928C113.653 115.359 109.635 109.671 108.995 103.107C108.551 99.5428 109.13 95.9256 110.664 92.6776C111.732 90.4497 113.481 88.6195 115.659 87.452C117.837 86.2844 120.329 85.8401 122.776 86.1834C125.102 86.3805 127.307 87.3045 129.079 88.8244C130.851 90.3444 132.1 92.3832 132.649 94.6523C133.085 96.7189 133.405 98.808 133.609 100.91H111.095C110.678 106.862 113.876 111.646 118.409 112.8C124.055 114.191 128.881 111.743 130.633 106.375C131.022 104.999 131.732 104.804 132.983 105.193V105.193ZM111.095 99.0049H131.217C131.092 92.6637 127.143 88.0746 121.789 88.0051C115.725 87.9078 111.359 92.3299 111.095 99.0049ZM137.127 105.332H139.102C139.175 106.785 139.647 108.19 140.466 109.392C141.286 110.594 142.421 111.547 143.747 112.146C145.411 112.896 147.224 113.26 149.049 113.211C150.874 113.163 152.664 112.704 154.288 111.868C155.172 111.469 155.913 110.809 156.41 109.976C156.908 109.143 157.137 108.177 157.069 107.21C157.12 106.276 156.865 105.352 156.343 104.576C155.821 103.801 155.06 103.217 154.176 102.913C152.007 102.106 149.698 101.661 147.487 100.952C145.187 100.297 142.937 99.474 140.757 98.4904C137.197 96.7521 136.974 89.9798 141.007 87.8382C143.072 86.6729 145.396 86.0433 147.767 86.0069C150.138 85.9705 152.48 86.5284 154.58 87.6296C155.852 88.3326 156.879 89.4067 157.525 90.7086C158.171 92.0105 158.405 93.4784 158.195 94.9165H156.499C156.499 94.8331 156.346 94.7635 156.346 94.6801C156.137 89.2706 151.604 87.6018 146.736 88.0746C145.283 88.2539 143.872 88.6819 142.565 89.3401C141.779 89.6994 141.124 90.2937 140.691 91.041C140.257 91.7883 140.067 92.6517 140.145 93.512C140.147 94.3727 140.416 95.2116 140.914 95.9137C141.412 96.6158 142.115 97.1466 142.926 97.4335C145.068 98.2123 147.307 98.7129 149.504 99.3248C151.27 99.8115 153.105 100.131 154.816 100.715C156.023 101.111 157.082 101.864 157.852 102.875C158.621 103.886 159.066 105.106 159.127 106.375C159.333 107.766 159.096 109.186 158.45 110.434C157.803 111.682 156.78 112.695 155.525 113.328C150.88 115.957 143.232 115.261 139.825 111.938C138.962 111.069 138.279 110.039 137.816 108.905C137.352 107.771 137.119 106.557 137.127 105.332ZM184.158 94.9165H182.309C182.309 94.6662 182.211 94.4437 182.183 94.2351C182.153 92.8487 181.648 91.5148 180.752 90.4566C179.856 89.3984 178.623 88.6802 177.261 88.4223C174.69 87.6847 171.947 87.8167 169.459 88.7978C168.476 89.0798 167.61 89.6722 166.991 90.4868C166.372 91.3013 166.033 92.2942 166.024 93.3173C165.99 94.322 166.303 95.3079 166.911 96.1085C167.519 96.9091 168.385 97.4753 169.362 97.7117C172.143 98.5739 174.994 99.1023 177.817 99.881C178.732 100.101 179.633 100.375 180.515 100.702C181.832 101.173 182.976 102.03 183.799 103.163C184.621 104.295 185.082 105.648 185.123 107.047C185.163 108.445 184.781 109.823 184.026 111.001C183.271 112.179 182.178 113.101 180.89 113.648C178.928 114.539 176.801 115.011 174.646 115.032C172.49 115.054 170.354 114.625 168.375 113.773C166.746 113.071 165.372 111.887 164.438 110.38C163.503 108.874 163.052 107.117 163.146 105.346H164.954C165.288 106.96 166.011 108.467 167.059 109.739C168.108 111.01 169.45 112.007 170.97 112.642C172.491 113.278 174.143 113.533 175.784 113.386C177.426 113.239 179.006 112.694 180.39 111.799C181.232 111.361 181.932 110.691 182.405 109.867C182.878 109.044 183.105 108.102 183.06 107.154C183.101 106.22 182.838 105.298 182.308 104.528C181.779 103.757 181.012 103.18 180.125 102.885C177.956 102.078 175.648 101.647 173.436 100.938C171.123 100.293 168.859 99.4795 166.664 98.5043C163.188 96.7939 162.909 90.0771 166.873 87.9356C168.963 86.7215 171.333 86.0693 173.75 86.0425C176.167 86.0157 178.551 86.6151 180.668 87.7826C181.878 88.5054 182.853 89.5645 183.473 90.8311C184.092 92.0976 184.33 93.517 184.158 94.9165V94.9165ZM63.0208 114.246C62.2927 114.522 61.4888 114.521 60.7611 114.245C60.0334 113.968 59.4323 113.434 59.0714 112.744C56.8047 109.351 54.3016 106.111 51.8958 102.801L50.8528 101.411C47.9881 105.249 45.1234 108.934 42.5091 112.758C42.1684 113.418 41.5998 113.931 40.9091 114.202C40.2183 114.473 39.4525 114.484 38.7544 114.232L49.5039 99.8115L39.5053 86.7814C40.225 86.5215 41.0124 86.5179 41.7345 86.7713C42.4565 87.0246 43.069 87.5194 43.4686 88.172C45.7909 91.5651 48.3636 94.8053 50.9223 98.2401C53.495 94.8331 56.0398 91.579 58.4178 88.2137C58.7603 87.5651 59.3293 87.0651 60.0164 86.8087C60.7036 86.5523 61.461 86.5574 62.1447 86.8231L58.2648 91.9684C56.5266 94.2629 54.8161 96.5714 53.0083 98.8103C52.8626 98.9407 52.7461 99.1004 52.6663 99.2789C52.5865 99.4574 52.5453 99.6507 52.5453 99.8463C52.5453 100.042 52.5865 100.235 52.6663 100.414C52.7461 100.592 52.8626 100.752 53.0083 100.882C56.3319 105.291 59.6277 109.713 63.0208 114.246V114.246ZM108.661 86.6423V88.5892C107.255 88.4969 105.844 88.7006 104.521 89.1871C103.199 89.6736 101.992 90.432 100.981 91.4135C99.9691 92.395 99.1745 93.5777 98.6483 94.8853C98.122 96.1929 97.8758 97.5963 97.9255 99.0049V114.302H95.9369V86.7535H97.8837V92.3995C100.29 88.2832 104.003 86.7535 108.661 86.6423V86.6423ZM13 99.6307C13.292 98.2401 13.4728 96.7243 13.8761 95.3059C16.2819 86.7535 26.0858 83.1935 32.8303 88.4918C36.7797 91.5929 37.767 95.9873 37.5723 100.938H15.3223C14.9608 109.782 21.3438 115.122 29.5067 112.397C30.8309 111.923 32.0162 111.127 32.9558 110.081C33.8954 109.034 34.5596 107.77 34.8884 106.403C35.3195 105.012 36.0148 104.776 37.3359 105.179C37.1183 106.872 36.5197 108.494 35.5852 109.922C34.6506 111.351 33.4045 112.548 31.9403 113.426C29.5212 114.749 26.7457 115.273 24.0107 114.923C21.2758 114.573 18.7215 113.368 16.713 111.479C14.726 109.245 13.5246 106.422 13.292 103.441C13.292 102.968 13.1112 102.495 13.0139 102.05C13.0046 101.225 13 100.419 13 99.6307V99.6307ZM15.3502 99.0328H35.4725C35.3473 92.622 31.3006 88.0746 25.905 88.0329C19.8975 87.9495 15.6005 92.3995 15.3362 99.0049L15.3502 99.0328Z" fill="white"/>
</svg>
