<svg width="200" height="200" viewBox="0 0 200 200" fill="none" xmlns="http://www.w3.org/2000/svg">
<path d="M119.388 80.2095L101.796 96.5049L85.4663 63.7226L93.9021 44.8733C96.0342 41.1133 99.5212 41.0637 101.653 44.8733L119.388 80.2095Z" fill="#FFA000"/>
<path d="M101.803 96.4979L36 157.388L85.4737 63.7227L101.803 96.4979Z" fill="#F57F17"/>
<path d="M138.677 55.2873C141.829 52.3006 145.073 53.308 145.893 57.5503L163 156.564L106.26 190.453C104.271 191.56 98.9937 191.993 98.9937 191.993C98.9937 191.993 94.1947 191.411 92.3549 190.404L36 157.387L138.677 55.2873Z" fill="#FFCA28"/>
<path d="M85.4737 63.7223L36 157.387L58.0485 20.4831C58.8757 16.2408 61.293 15.808 63.4751 19.5679L85.4737 63.7223Z" fill="#FFA000"/>
</svg>
