<svg width="200" height="200" viewBox="0 0 200 200" fill="none" xmlns="http://www.w3.org/2000/svg">
<circle cx="100" cy="100" r="100" fill="white"/>
<path fill-rule="evenodd" clip-rule="evenodd" d="M33 33H168V168H33V33Z" fill="white"/>
<path fill-rule="evenodd" clip-rule="evenodd" d="M38.9559 122.806H43.0496V106.681L49.362 120.743C50.1114 122.43 51.1122 123.024 53.1118 123.024C55.112 123.024 56.1121 122.43 56.8615 120.743L63.1739 106.681V122.806H67.2361V106.712C67.2361 105.15 66.6106 104.399 65.3297 103.992C62.2361 103.024 60.142 103.868 59.205 105.962L53.0179 119.805L47.0186 105.962C46.1123 103.868 43.9874 103.024 40.8938 103.992C39.5814 104.399 38.9566 105.149 38.9566 106.712V122.806H38.9559V122.806ZM70.6419 109.68H74.7041V118.555C74.6733 119.055 74.8603 120.18 77.1105 120.212C78.2353 120.242 85.891 120.212 85.9534 120.212V109.649H90.047C90.0778 109.649 90.047 124.054 90.047 124.117C90.0778 127.679 85.641 128.428 83.61 128.491H70.7358V125.742C70.7358 125.742 83.5791 125.773 83.61 125.742C86.2349 125.492 85.9226 124.18 85.9226 123.742V122.679H77.2667C73.2354 122.617 70.6728 120.866 70.6419 118.835C70.6419 118.648 70.7358 109.775 70.6419 109.68V109.68ZM158.419 99.4618C155.92 99.3995 154.013 99.618 152.357 100.337C151.889 100.524 151.169 100.524 151.076 101.118C151.326 101.367 151.388 101.774 151.576 102.118C151.982 102.744 152.639 103.586 153.232 104.024C153.857 104.525 154.514 105.024 155.201 105.462C156.451 106.211 157.826 106.617 158.981 107.369C159.701 107.805 160.388 108.369 161.075 108.868C161.387 109.118 161.638 109.494 162.044 109.649V109.588C161.826 109.306 161.763 108.9 161.575 108.586L160.638 107.649C159.732 106.462 158.575 105.399 157.356 104.525C156.387 103.837 154.2 102.868 153.794 101.744C153.762 101.712 153.731 101.712 153.731 101.681C154.418 101.586 155.232 101.337 155.856 101.18C156.919 100.9 157.887 100.961 158.981 100.68C159.481 100.524 159.981 100.399 160.482 100.243V99.9612C159.919 99.3988 159.544 98.6179 158.92 98.1178C157.326 96.743 155.575 95.399 153.794 94.2742C152.794 93.6179 151.576 93.2117 150.514 92.6808C150.169 92.5247 149.544 92.4308 149.295 92.1184C148.731 91.4307 148.451 90.5244 148.014 89.712C147.097 87.9297 146.242 86.116 145.452 84.2743C144.921 83.0557 144.545 81.8371 143.89 80.7116C140.639 75.3993 137.171 72.1811 131.765 69.0245C130.609 68.3683 129.235 68.0874 127.765 67.7436C126.984 67.6805 126.203 67.6497 125.422 67.5867C124.953 67.399 124.453 66.8058 123.984 66.5242C122.203 65.3994 117.609 62.9306 116.296 66.1803C115.452 68.2114 117.546 70.2117 118.296 71.2433C118.828 71.9619 119.483 72.775 119.859 73.5867C120.107 74.1176 120.139 74.6492 120.358 75.2116C120.889 76.6179 121.327 78.1489 121.983 79.4299C122.326 80.0861 122.701 80.7739 123.139 81.3678C123.389 81.7117 123.858 81.8679 123.92 82.4303C123.482 83.055 123.452 83.9928 123.202 84.7737C122.108 88.3049 122.514 92.6486 124.139 95.2729C124.64 96.0538 125.795 97.7725 127.421 97.117C128.827 96.5231 128.514 94.7728 128.92 93.1795C129.015 92.8356 128.952 92.5856 129.139 92.3356V92.3979C129.545 93.2726 129.983 94.1166 130.42 94.9598C131.357 96.4915 133.045 98.1164 134.483 99.1781C135.201 99.7405 135.795 100.71 136.764 101.022V100.958H136.67C136.483 100.678 136.201 100.553 135.983 100.334C135.42 99.7714 134.796 99.0836 134.326 98.4589C133.046 96.7086 131.89 94.7714 130.827 92.7712C130.327 91.8026 129.889 90.7401 129.484 89.7715C129.326 89.3968 129.326 88.8344 128.983 88.6152C128.514 89.3338 127.859 89.9277 127.482 90.7716C126.92 92.1156 126.827 93.7713 126.64 95.4592C126.514 95.5215 126.545 95.49 126.482 95.553C125.484 95.303 125.139 94.2714 124.764 93.3966C123.859 91.1779 123.67 87.6158 124.483 85.0531C124.701 84.3969 125.671 82.3343 125.265 81.7096C125.076 81.1157 124.483 80.741 124.14 80.2724C123.702 79.71 123.296 78.9599 122.984 78.3037C122.235 76.5535 121.89 74.6163 121.077 72.8667C120.671 72.0228 120.047 71.1789 119.515 70.4603C118.921 69.6163 118.265 69.0231 117.797 68.023C117.641 67.6791 117.422 67.1167 117.641 66.7413C117.734 66.4913 117.828 66.3975 118.077 66.3036C118.483 65.9912 119.64 66.429 120.077 66.5845C121.202 67.0845 122.171 67.5222 123.139 68.1785C123.609 68.4909 124.078 69.0841 124.64 69.2409H125.266C126.266 69.4595 127.39 69.3033 128.327 69.5848C129.983 70.0842 131.483 70.8658 132.828 71.7413C136.952 74.3347 140.296 78.0221 142.608 82.4282C142.983 83.1467 143.139 83.803 143.452 84.5531C144.109 86.0848 144.952 87.6466 145.608 89.1153C146.233 90.6155 146.89 92.1156 147.795 93.3336C148.296 93.9898 150.17 94.3337 151.014 94.6769C151.608 94.9269 152.576 95.2078 153.14 95.5523C154.233 96.1771 155.264 96.9587 156.295 97.6773C156.794 98.0246 158.356 98.8056 158.419 99.4618V99.4618Z" fill="#00678C"/>
<path fill-rule="evenodd" clip-rule="evenodd" d="M126.545 72.3071C126.114 72.3073 125.684 72.3599 125.265 72.464V72.5263H125.358C125.608 73.0264 126.046 73.3703 126.358 73.8073C126.577 74.3074 126.828 74.8074 127.046 75.3075L127.139 75.2137C127.577 74.9328 127.765 74.4327 127.765 73.6518C127.608 73.4641 127.577 73.2456 127.421 73.0264C127.202 72.7133 126.828 72.5572 126.545 72.3071Z" fill="#00678C"/>
<path fill-rule="evenodd" clip-rule="evenodd" d="M93.2036 122.806H104.921C106.296 122.806 107.64 122.524 108.702 122.023C110.452 121.212 111.327 120.118 111.327 118.681V115.681C111.327 114.525 110.327 113.401 108.422 112.681C107.39 112.275 106.14 112.087 104.921 112.087H99.9846C98.3282 112.087 97.5473 111.587 97.3596 110.494C97.3281 110.369 97.3281 110.244 97.3281 110.119V108.275C97.3281 108.151 97.3281 108.057 97.3596 107.932C97.5473 107.088 97.9843 106.838 99.4222 106.713C99.5468 106.713 99.703 106.682 99.8284 106.682H111.484V103.964H100.016C98.3597 103.964 97.5158 104.088 96.7349 104.307C94.2976 105.088 93.2351 106.276 93.2351 108.37V110.745C93.2351 112.589 95.3285 114.151 98.7974 114.525C99.2037 114.525 99.5784 114.557 99.9846 114.557H104.204C104.36 114.557 104.515 114.557 104.64 114.588C105.953 114.713 106.484 114.932 106.89 115.399C107.109 115.649 107.203 115.869 107.203 116.15V118.525C107.203 118.807 107.016 119.182 106.609 119.494C106.265 119.807 105.671 119.995 104.89 120.056C104.734 120.056 104.61 120.088 104.452 120.088H93.2036V122.806ZM136.764 118.054C136.764 120.867 138.826 122.429 143.045 122.742C143.42 122.774 143.826 122.805 144.201 122.805H154.825V120.086H144.138C141.731 120.086 140.826 119.492 140.826 118.054V103.962H136.763V118.054H136.764ZM113.921 118.211V108.525C113.921 106.056 115.639 104.556 119.077 104.087C119.421 104.024 119.827 104.024 120.171 104.024H127.919C128.294 104.024 128.639 104.024 129.045 104.087C132.451 104.556 134.2 106.056 134.2 108.525V118.211C134.2 120.212 133.451 121.273 131.763 121.961L135.794 125.586H131.045L127.795 122.68L124.513 122.867H120.17C119.42 122.867 118.639 122.774 117.763 122.524C115.171 121.836 113.921 120.461 113.921 118.211V118.211ZM118.327 117.962C118.327 118.118 118.359 118.242 118.39 118.4C118.64 119.524 119.702 120.149 121.295 120.149H125.015L121.609 117.087H126.358L129.326 119.743C129.859 119.462 130.233 119.024 130.358 118.461C130.39 118.305 130.39 118.181 130.39 118.055V108.744C130.39 108.649 130.39 108.525 130.358 108.399C130.108 107.337 129.046 106.744 127.483 106.744H121.296C119.483 106.744 118.328 107.525 118.328 108.744V117.962H118.327V117.962ZM156.701 122.806H157.295V120.556H158.107V120.086H155.889V120.556H156.701V122.806ZM161.263 122.806H161.794V120.086H160.982L160.264 121.962L159.546 120.086H158.702V122.806H159.264V120.743L160.045 122.806H160.451L161.232 120.743H161.264V122.806H161.263Z" fill="#CE8B2C"/>
<path fill-rule="evenodd" clip-rule="evenodd" d="M39.8622 97.181V86.9311H43.0489C43.7989 86.9311 44.3305 86.9941 44.7052 87.1188C45.1738 87.3065 45.5485 87.6188 45.8608 88.1189C46.1424 88.5875 46.2986 89.1814 46.2986 89.8691C46.2986 90.8069 46.0492 91.5563 45.58 92.1194C45.1114 92.7126 44.2983 92.9942 43.1427 92.9942H40.9863V97.1817H39.8622V97.181V97.181ZM40.987 91.8063H43.1742C43.862 91.8063 44.3613 91.6502 44.6744 91.3378C44.9875 91.0254 45.143 90.5562 45.143 89.9315C45.143 89.5252 45.0491 89.1814 44.8929 88.8998C44.7367 88.5875 44.549 88.4005 44.3305 88.3066C44.112 88.1812 43.7051 88.1497 43.1434 88.1497H40.987V91.8063V91.8063ZM47.3932 92.181C47.3932 90.4623 47.7686 89.1183 48.5495 88.1812C49.3304 87.2435 50.2682 86.7749 51.4238 86.7749C52.1739 86.7749 52.8617 86.9626 53.4549 87.3996C54.0803 87.8058 54.5489 88.4306 54.9236 89.2122C55.2675 90.0246 55.4545 90.9624 55.4545 92.0557C55.4545 93.5874 55.1106 94.8375 54.4228 95.7746C53.6419 96.8371 52.6418 97.368 51.4231 97.368C50.1737 97.368 49.1736 96.8056 48.4235 95.7431C47.7371 94.7752 47.3932 93.5874 47.3932 92.181V92.181ZM48.5495 92.2126C48.5495 93.462 48.8304 94.4621 49.3935 95.1499C49.9244 95.837 50.6121 96.2124 51.4245 96.2124C52.237 96.2124 52.9247 95.837 53.4556 95.1499C54.018 94.4313 54.2996 93.3997 54.2996 92.0256C54.2996 91.1501 54.1434 90.3692 53.8618 89.6814C53.6433 89.1505 53.3302 88.7128 52.8932 88.4005C52.4653 88.0929 51.9509 87.9288 51.4238 87.9319C50.5799 87.9319 49.8928 88.2758 49.362 88.9629C48.7996 89.6814 48.5495 90.7439 48.5495 92.2126V92.2126ZM58.2994 97.181L56.0806 86.9311H57.2054L58.4871 93.6497C58.6432 94.3375 58.7364 95.056 58.8617 95.7438L59.2364 93.8689L60.8613 86.9318H62.1738L63.3609 92.1194C63.6541 93.3145 63.8835 94.5243 64.048 95.7438C64.1418 95.0876 64.2665 94.3375 64.4542 93.5257L65.7667 86.9318H66.923L64.6111 97.1817H63.5171L61.7361 89.3691L61.4545 88.1819C61.3922 88.6197 61.2983 89.0259 61.236 89.3691L59.4241 97.181H58.2994ZM67.9546 97.181V86.9311H74.017V88.1504H69.0486V91.2755H73.7046V92.4941H69.0486V95.9938H74.2047V97.181H67.9546V97.181ZM75.7357 97.181V86.9311H79.4546C80.2363 86.9311 80.8295 87.0249 81.1733 87.2126C81.5487 87.4003 81.8604 87.7442 82.1104 88.1812C82.329 88.619 82.4543 89.1498 82.4543 89.7129C82.4543 90.4939 82.2666 91.1186 81.8604 91.6186C81.4542 92.0872 80.8603 92.4003 80.0794 92.5249C80.3917 92.7126 80.6418 92.9003 80.798 93.0873C81.1418 93.4935 81.4234 93.9313 81.6727 94.3998L83.1421 97.181H81.7357L80.611 95.056C80.1732 94.2128 79.8609 93.6497 79.6423 93.3689C79.4238 93.088 79.2046 92.9003 78.9861 92.775C78.7984 92.6811 78.5176 92.6188 78.1422 92.6188H76.8612V97.181H75.7357V97.181ZM76.8605 91.4625H79.2354C79.7663 91.4625 80.1725 91.4001 80.4226 91.2748C80.7034 91.1494 80.9226 90.9309 81.0788 90.6809C81.235 90.4 81.2973 90.0869 81.2973 89.7431C81.2973 89.2122 81.1726 88.806 80.8596 88.4936C80.5472 88.2128 80.1095 88.0559 79.5163 88.0559H76.8605V91.4625V91.4625ZM84.2354 97.181V86.9311H90.2977V88.1504H85.3601V91.2755H89.9847V92.4941H85.3601V95.9938H90.5162V97.181H84.2354ZM92.0157 97.181V86.9311H94.9216C95.6401 86.9311 96.1717 86.9941 96.5464 87.1188C97.0465 87.275 97.4527 87.5873 97.8274 88.0251C98.1713 88.4628 98.4528 88.9937 98.6713 89.6499C98.859 90.3062 98.9522 91.0878 98.9522 91.994C98.9522 93.1503 98.796 94.1505 98.4521 94.9622C98.1082 95.7746 97.6712 96.337 97.1396 96.6809C96.6087 97.0248 95.8895 97.181 95.0462 97.181H92.0157V97.181ZM93.1412 95.9938H94.9223C95.6408 95.9938 96.1724 95.8685 96.5471 95.6191C96.9225 95.4006 97.2034 95.0252 97.4219 94.4944C97.6719 93.8073 97.7973 92.9634 97.7973 91.9947C97.7973 90.9631 97.6726 90.1199 97.3911 89.5259C97.1095 88.932 96.7341 88.5258 96.2971 88.3381C96.0155 88.2135 95.547 88.1504 94.8907 88.1504H93.1405V95.9938H93.1412V95.9938ZM104.046 97.181V86.9311H107.203C107.859 86.9311 108.359 87.0249 108.734 87.2434C109.109 87.4311 109.422 87.7435 109.641 88.1497C109.89 88.5875 110.016 89.0252 110.016 89.5561C110.016 90.0246 109.89 90.4315 109.703 90.8062C109.484 91.1809 109.203 91.4933 108.829 91.7118C109.294 91.8945 109.696 92.2096 109.984 92.6181C110.265 93.0558 110.391 93.5867 110.391 94.2121C110.391 94.8375 110.265 95.3677 110.016 95.837C109.766 96.3055 109.422 96.6494 108.984 96.8686C108.578 97.0871 107.984 97.181 107.235 97.181H104.046V97.181ZM105.172 91.2439H106.985C107.453 91.2439 107.797 91.2131 107.985 91.1501C108.296 91.0562 108.516 90.8693 108.671 90.6507C108.829 90.4322 108.89 90.1192 108.89 89.7136C108.89 89.3382 108.828 89.0259 108.702 88.7759C108.546 88.5258 108.359 88.3696 108.108 88.2758C107.89 88.1819 107.451 88.1504 106.858 88.1504H105.171V91.2439H105.172V91.2439ZM105.172 95.9938H107.265C107.703 95.9938 108.046 95.9315 108.265 95.8685C108.57 95.7501 108.824 95.5292 108.984 95.2437C109.172 94.9937 109.233 94.619 109.233 94.2128C109.233 93.8066 109.171 93.4942 109.015 93.2127C108.857 92.9626 108.64 92.7441 108.358 92.6188C108.108 92.4941 107.67 92.4311 107.108 92.4311H105.171V95.9938H105.172V95.9938ZM114.264 97.181V92.8373L111.047 86.9311H112.39L114.045 90.0246C114.362 90.595 114.654 91.179 114.921 91.7748C115.171 91.2124 115.451 90.6185 115.828 89.9623L117.452 86.9311H118.733L115.39 92.8373V97.181H114.264V97.181Z" fill="#00678C"/>
</svg>
