<svg width="200" height="200" viewBox="0 0 200 200" fill="none" xmlns="http://www.w3.org/2000/svg">
<g clip-path="url(#clip0_619_3577)">
<path d="M95.419 10.4579L25.239 51.5571C22.614 53.0936 21 55.9316 21 59.0062V141.266C21 144.338 22.614 147.176 25.2374 148.716L95.4157 189.848C98.0407 191.384 101.272 191.384 103.895 189.848L174.059 148.716C176.68 147.176 178.294 144.338 178.294 141.266V59.0028C178.294 55.9316 176.68 53.0936 174.055 51.5571L103.894 10.4579C102.583 9.69052 101.119 9.30512 99.6564 9.30512C98.1923 9.30512 96.7299 9.69052 95.419 10.4579" fill="url(#paint0_linear_619_3577)"/>
<path d="M22.7439 146.49C23.4118 147.377 24.253 148.138 25.2374 148.716L85.4385 183.999L95.4606 189.847C96.9597 190.725 98.6703 191.097 100.351 190.972C100.912 190.924 101.472 190.819 102.018 190.659L176.023 53.1424C175.456 52.5255 174.797 51.9897 174.055 51.557L128.104 24.6392L103.82 10.4577C103.126 10.0521 102.381 9.75965 101.617 9.56865L22.7439 146.49Z" fill="url(#paint1_linear_619_3577)"/>
<path d="M98.8053 9.3508C97.631 9.46912 96.4767 9.83929 95.419 10.4579L25.439 51.4388L100.881 190.909C101.927 190.755 102.951 190.4 103.895 189.848L174.059 148.716C176.226 147.444 177.705 145.283 178.153 142.839L101.237 9.49281C100.669 9.37787 100.091 9.32037 99.5132 9.32037C99.2767 9.32037 99.0401 9.33052 98.8053 9.3508" fill="url(#paint2_linear_619_3577)"/>
<path d="M174.235 148.716L103.984 189.846C103.018 190.412 101.963 190.767 100.884 190.916L102.283 193.502L180.313 147.667V146.586L178.384 143.241C177.807 145.52 176.281 147.514 174.235 148.716" fill="url(#paint3_linear_619_3577)"/>
<path d="M174.235 148.716L103.984 189.846C103.017 190.412 101.963 190.767 100.884 190.916L102.283 193.502L180.313 147.667V146.586L178.384 143.241C177.806 145.52 176.281 147.514 174.235 148.716" fill="url(#paint4_linear_619_3577)"/>
</g>
<defs>
<linearGradient id="paint0_linear_619_3577" x1="128.182" y1="41.0648" x2="63.2641" y2="171.566" gradientUnits="userSpaceOnUse">
<stop stop-color="#687E67"/>
<stop offset="0.528804" stop-color="#687E67"/>
<stop offset="1" stop-color="#83A178"/>
</linearGradient>
<linearGradient id="paint1_linear_619_3577" x1="88.9658" y1="109.756" x2="268.705" y2="-21.1091" gradientUnits="userSpaceOnUse">
<stop stop-color="#687E67"/>
<stop offset="0.137556" stop-color="#687E67"/>
<stop offset="0.697374" stop-color="#9BB48F"/>
<stop offset="0.908084" stop-color="#9BB48F"/>
<stop offset="1" stop-color="#9BB48F"/>
</linearGradient>
<linearGradient id="paint2_linear_619_3577" x1="18.5171" y1="100.118" x2="180.778" y2="100.118" gradientUnits="userSpaceOnUse">
<stop stop-color="#9BB48F"/>
<stop offset="0.0919165" stop-color="#9BB48F"/>
<stop offset="0.302626" stop-color="#9BB48F"/>
<stop offset="0.862444" stop-color="#687E67"/>
<stop offset="1" stop-color="#687E67"/>
</linearGradient>
<linearGradient id="paint3_linear_619_3577" x1="18.5171" y1="168.372" x2="180.778" y2="168.372" gradientUnits="userSpaceOnUse">
<stop stop-color="#9BB48F"/>
<stop offset="0.0919165" stop-color="#9BB48F"/>
<stop offset="0.302626" stop-color="#9BB48F"/>
<stop offset="0.862444" stop-color="#687E67"/>
<stop offset="1" stop-color="#687E67"/>
</linearGradient>
<linearGradient id="paint4_linear_619_3577" x1="204.418" y1="37.1734" x2="101.954" y2="243.152" gradientUnits="userSpaceOnUse">
<stop stop-color="#687E67"/>
<stop offset="0.528804" stop-color="#687E67"/>
<stop offset="1" stop-color="#83A178"/>
</linearGradient>
<clipPath id="clip0_619_3577">
<rect width="157" height="182" fill="white" transform="translate(21 9)"/>
</clipPath>
</defs>
</svg>
