<svg width="200" height="200" viewBox="0 0 200 200" fill="none" xmlns="http://www.w3.org/2000/svg">
<path d="M161.299 102.579C155.371 102.61 150.22 104.044 145.906 106.164C144.324 103.015 142.741 100.209 142.462 98.1519C142.151 95.7515 141.779 94.2864 142.151 91.4184C142.524 88.5504 144.199 84.4666 144.168 84.1548C144.137 83.8431 143.796 82.3779 140.382 82.3468C136.969 82.3156 134.021 83.0014 133.679 83.9054C133.338 84.8095 132.686 86.867 132.252 88.9868C131.662 92.1042 125.424 103.233 121.856 109.063C120.707 106.787 119.714 104.792 119.497 103.202C119.187 100.802 118.814 99.3365 119.187 96.4685C119.559 93.6005 121.235 89.5167 121.204 89.205C121.173 88.8933 120.831 87.4281 117.418 87.3969C114.004 87.3657 111.056 88.0516 110.715 88.9556C110.373 89.8597 110.001 91.9795 109.287 94.037C108.573 96.0944 100.287 114.674 98.1151 119.475C96.9979 121.938 96.0359 123.902 95.3531 125.242C95.3531 125.242 95.3221 125.336 95.229 125.491C94.6394 126.645 94.298 127.268 94.298 127.268C94.298 127.268 94.298 127.268 94.298 127.299C93.8325 128.141 93.336 128.921 93.0877 128.921C92.9015 128.921 92.5602 126.676 93.1498 123.621C94.3911 117.168 97.3393 107.13 97.3082 106.787C97.3082 106.6 97.8668 104.854 95.3842 103.95C92.9636 103.046 92.0947 104.543 91.8774 104.543C91.6602 104.543 91.505 105.073 91.505 105.073C91.505 105.073 94.2049 93.7876 86.3535 93.7876C81.4503 93.7876 74.685 99.1807 71.3334 104.044C69.2232 105.197 64.7234 107.66 59.9132 110.31C58.0822 111.338 56.1892 112.367 54.4203 113.334C54.2962 113.209 54.1721 113.053 54.0479 112.928C44.5518 102.734 26.987 95.5333 27.7318 81.848C28.0111 76.8601 29.7179 63.7671 61.4649 47.8684C87.5948 34.9313 108.387 38.5163 111.987 46.4656C117.138 57.8129 100.846 78.8865 73.8471 81.9415C63.5441 83.0949 58.1443 79.1047 56.7789 77.6083C55.3513 76.0496 55.1341 75.9561 54.6065 76.2678C53.7376 76.7355 54.2962 78.1383 54.6065 78.9488C55.4134 81.0686 58.7339 84.8095 64.351 86.6487C69.3163 88.2698 81.3882 89.1738 96.0048 83.5002C112.359 77.1407 125.145 59.4651 121.39 44.6575C117.635 29.6317 92.8084 24.6751 69.3163 33.0608C55.3513 38.0487 40.2071 45.9045 29.3145 56.1295C16.3736 68.2873 14.3254 78.8553 15.1633 83.282C18.1735 98.9936 39.7416 109.219 48.3689 116.794C47.9344 117.043 47.531 117.262 47.1896 117.449C42.876 119.6 26.4284 128.235 22.332 137.369C17.677 147.718 23.0768 155.138 26.6456 156.135C37.7245 159.222 49.1136 153.673 55.2272 144.507C61.3407 135.342 60.5959 123.434 57.7719 117.979C57.7409 117.916 57.7098 117.854 57.6478 117.791C58.765 117.137 59.9132 116.451 61.0304 115.796C63.2338 114.487 65.4061 113.271 67.2681 112.274C66.213 115.173 65.4371 118.633 65.0647 123.621C64.5992 129.482 66.9888 137.088 70.1231 140.081C71.5196 141.39 73.1644 141.421 74.2195 141.421C77.8814 141.421 79.5262 138.366 81.3572 134.75C83.5916 130.323 85.6087 125.18 85.6087 125.18C85.6087 125.18 83.095 139.083 89.9223 139.083C92.405 139.083 94.9187 135.841 96.0359 134.189C96.0359 134.22 96.0359 134.22 96.0359 134.22C96.0359 134.22 96.098 134.127 96.2221 133.908C96.4704 133.503 96.6255 133.254 96.6255 133.254C96.6255 133.254 96.6255 133.223 96.6255 133.191C97.6186 131.446 99.853 127.487 103.174 120.909C107.456 112.43 111.584 101.83 111.584 101.83C111.584 101.83 111.956 104.418 113.228 108.72C113.973 111.245 115.525 114.019 116.766 116.7C115.773 118.103 115.152 118.883 115.152 118.883C115.152 118.883 115.152 118.883 115.183 118.914C114.377 119.974 113.508 121.127 112.546 122.249C109.163 126.302 105.129 130.947 104.57 132.287C103.918 133.877 104.073 135.031 105.315 135.966C106.215 136.652 107.829 136.745 109.473 136.652C112.515 136.433 114.656 135.685 115.711 135.218C117.356 134.625 119.28 133.721 121.08 132.381C124.4 129.918 126.417 126.395 126.231 121.751C126.138 119.194 125.3 116.638 124.276 114.238C124.586 113.801 124.866 113.365 125.176 112.928C130.421 105.228 134.486 96.7803 134.486 96.7803C134.486 96.7803 134.858 99.3677 136.131 103.67C136.751 105.852 138.024 108.221 139.141 110.528C134.207 114.549 131.165 119.225 130.079 122.281C128.124 127.954 129.645 130.51 132.531 131.103C133.834 131.383 135.696 130.76 137.062 130.167C138.8 129.606 140.848 128.64 142.803 127.206C146.124 124.743 149.32 121.314 149.134 116.669C149.041 114.549 148.482 112.461 147.706 110.434C151.896 108.689 157.295 107.722 164.185 108.533C178.957 110.279 181.874 119.537 181.315 123.434C180.757 127.331 177.653 129.45 176.629 130.105C175.605 130.76 175.264 130.978 175.357 131.446C175.481 132.131 175.977 132.1 176.846 131.976C178.057 131.757 184.605 128.827 184.884 121.657C185.35 112.492 176.66 102.485 161.299 102.579ZM47.3448 141.172C42.4415 146.534 35.6142 148.56 32.666 146.846C29.5007 145.006 30.742 137.088 36.7624 131.414C40.4243 127.954 45.1414 124.743 48.2758 122.779C48.9895 122.343 50.0446 121.719 51.317 120.94C51.5342 120.815 51.6584 120.753 51.6584 120.753C51.9066 120.597 52.1549 120.441 52.4032 120.285C54.6065 128.391 52.4963 135.529 47.3448 141.172ZM83.033 116.794C81.3261 120.971 77.7573 131.664 75.585 131.072C73.723 130.573 72.5748 122.468 75.2126 114.456C76.547 110.434 79.371 105.634 81.0158 103.763C83.6847 100.771 86.6328 99.773 87.3466 100.989C88.2465 102.579 84.0881 114.175 83.033 116.794ZM112.483 130.947C111.77 131.321 111.087 131.57 110.777 131.383C110.559 131.259 111.087 130.76 111.087 130.76C111.087 130.76 114.78 126.77 116.239 124.961C117.076 123.902 118.069 122.655 119.125 121.252C119.125 121.376 119.125 121.532 119.125 121.657C119.125 126.427 114.532 129.638 112.483 130.947ZM135.2 125.741C134.672 125.367 134.765 124.12 136.534 120.223C137.217 118.696 138.831 116.139 141.593 113.677C141.903 114.674 142.12 115.64 142.089 116.545C142.058 122.561 137.776 124.806 135.2 125.741Z" fill="#CD6799"/>
</svg>
