<svg width="200" height="200" viewBox="0 0 200 200" fill="none" xmlns="http://www.w3.org/2000/svg">
<g clip-path="url(#clip0_619_3401)">
<path d="M100 179.995C84.1787 179.995 68.7122 175.303 55.5572 166.514C42.402 157.724 32.1488 145.23 26.0942 130.613C20.0395 115.996 18.4554 99.9113 21.542 84.3939C24.6286 68.8765 32.2474 54.6225 43.435 43.435C54.6225 32.2474 68.8765 24.6286 84.3939 21.542C99.9114 18.4554 115.996 20.0395 130.613 26.0942C145.23 32.1488 157.724 42.402 166.513 55.5571C175.303 68.7122 179.995 84.1787 179.995 100C179.971 121.209 171.536 141.542 156.539 156.539C141.542 171.536 121.209 179.971 100 179.995Z" fill="#85EA2D"/>
<path d="M100 24.008C115.03 24.008 129.722 28.4649 142.219 36.8149C154.716 45.1651 164.456 57.0334 170.207 70.9192C175.959 84.8049 177.464 100.085 174.532 114.825C171.6 129.566 164.362 143.107 153.734 153.734C143.107 164.362 129.567 171.6 114.826 174.532C100.084 177.464 84.805 175.959 70.9193 170.207C57.0335 164.456 45.1651 154.716 36.815 142.219C28.4649 129.722 24.008 115.03 24.008 100C24.008 79.8458 32.0143 60.5168 46.2656 46.2655C60.5168 32.0143 79.8459 24.008 100 24.008ZM100 16C83.3865 16 67.1458 20.9265 53.3321 30.1566C39.5184 39.3866 28.7519 52.5056 22.3942 67.8546C16.0364 83.2037 14.3729 100.093 17.6141 116.387C20.8552 132.682 28.8554 147.65 40.603 159.397C52.3507 171.144 67.318 179.145 83.6122 182.386C99.9066 185.627 116.796 183.964 132.145 177.606C147.494 171.248 160.613 160.482 169.843 146.668C179.073 132.854 184 116.614 184 100C183.974 77.7295 175.116 56.3788 159.369 40.6313C143.621 24.8838 122.271 16.0256 100 16Z" fill="#173647"/>
<path d="M68.8927 72.8484C68.6349 75.7228 68.9898 78.6943 68.7976 81.6012C68.5861 84.5071 68.1975 87.3972 67.6337 90.2559C66.6915 94.2847 64.226 97.7917 60.7542 100.042C67.6014 104.5 68.3769 111.412 68.8281 118.422C69.0559 122.202 68.9588 126.013 69.3373 129.759C69.6277 132.666 70.7596 133.41 73.7631 133.506C74.99 133.539 76.249 133.506 77.6659 133.506V142.487C68.784 144.004 61.4516 141.484 59.6426 133.959C59.0475 131.195 58.6802 128.386 58.5447 125.562C58.3496 122.556 58.672 119.552 58.4463 116.549C57.7997 108.312 56.734 105.534 48.855 105.147V94.9089C49.4191 94.7793 49.9902 94.6821 50.5655 94.6186C54.8928 94.3913 56.734 93.0678 57.6707 88.8032C58.1193 86.4039 58.3892 83.9742 58.4785 81.5351C58.5695 76.8159 58.9037 72.1045 59.4797 67.4198C60.6099 60.7337 64.7403 57.5027 71.6269 57.1158C73.5646 57.019 75.5297 57.1158 77.7631 57.1158V66.2896C76.8259 66.3541 76.0185 66.483 75.1801 66.483C69.6056 66.2862 69.3137 68.1919 68.8927 72.8484ZM79.6499 94.1031H79.5208C77.9694 94.0458 76.4579 94.6018 75.3134 95.6513C74.1694 96.7013 73.4848 98.1592 73.4082 99.7101C73.3315 101.26 73.8691 102.779 74.9044 103.936C75.9397 105.093 77.3893 105.796 78.9391 105.892H79.3276C80.8648 105.981 82.3741 105.456 83.5249 104.433C84.6752 103.41 85.3729 101.971 85.4638 100.435V100.11C85.49 98.5419 84.8926 97.0273 83.8021 95.9001C82.7117 94.7724 81.2181 94.1241 79.6499 94.0978V94.1031ZM99.9034 94.1031C98.4061 94.0542 96.9508 94.6008 95.8556 95.6235C94.7605 96.6456 94.1152 98.06 94.0606 99.5568C94.0549 99.7405 94.0664 99.9237 94.0948 100.105C94.057 100.894 94.1882 101.681 94.4796 102.415C94.7715 103.149 95.2167 103.812 95.7858 104.359C96.3544 104.907 97.0342 105.327 97.7787 105.59C98.5231 105.854 99.3148 105.954 100.102 105.887C100.89 105.933 101.679 105.81 102.415 105.523C103.15 105.237 103.816 104.795 104.365 104.227C104.914 103.66 105.334 102.98 105.596 102.235C105.858 101.49 105.956 100.698 105.883 99.9117C105.922 99.1236 105.793 98.3361 105.505 97.6017C105.216 96.8672 104.774 96.2031 104.208 95.6529C103.642 95.1027 102.965 94.6795 102.223 94.4112C101.481 94.143 100.69 94.0364 99.9034 94.0978V94.1031ZM120.64 94.1031C119.054 94.0747 117.521 94.6722 116.372 95.7663C115.223 96.8609 114.552 98.3634 114.504 99.9489C114.502 100.73 114.655 101.502 114.952 102.224C115.25 102.946 115.687 103.601 116.24 104.153C116.792 104.704 117.447 105.142 118.168 105.44C118.89 105.738 119.663 105.89 120.443 105.888H120.508C123.479 106.398 126.483 103.531 126.678 100.074C126.675 99.2853 126.517 98.5047 126.211 97.7765C125.906 97.0488 125.46 96.3884 124.9 95.8329C124.338 95.278 123.674 94.8391 122.943 94.5409C122.212 94.2432 121.429 94.0926 120.64 94.0978V94.1031ZM149.098 94.5866C145.35 94.4254 143.476 93.1659 142.541 89.6127C141.961 87.3379 141.604 85.0116 141.475 82.667C141.216 78.3399 141.248 73.9788 140.958 69.6496C140.279 59.3795 132.852 55.7938 122.06 57.5705V66.4847C123.773 66.4847 125.097 66.4847 126.422 66.517C128.716 66.5492 130.46 67.4215 130.685 69.9735C130.912 72.2988 130.912 74.6576 131.138 77.0143C131.591 81.6999 131.847 86.4459 132.655 91.067C133.582 94.8118 135.95 98.039 139.244 100.046C133.529 103.89 131.847 109.379 131.557 115.551C131.397 119.781 131.299 124.046 131.073 128.31C130.88 132.186 129.522 133.446 125.614 133.542C124.516 133.575 123.45 133.671 122.22 133.736V142.877C124.513 142.877 126.614 143.006 128.713 142.877C135.237 142.49 139.178 139.324 140.469 132.994C141.018 129.508 141.342 125.991 141.438 122.463C141.664 119.238 141.632 115.97 141.947 112.773C142.431 107.765 144.725 105.698 149.731 105.376C150.204 105.318 150.67 105.21 151.12 105.054V94.8087C150.293 94.7105 149.711 94.6155 149.098 94.5813V94.5866Z" fill="#173647"/>
</g>
<defs>
<clipPath id="clip0_619_3401">
<rect width="168" height="168" fill="white" transform="translate(16 16)"/>
</clipPath>
</defs>
</svg>
