<?xml version="1.0" standalone="no"?>
<!DOCTYPE svg PUBLIC "-//W3C//DTD SVG 20010904//EN"
 "http://www.w3.org/TR/2001/REC-SVG-20010904/DTD/svg10.dtd">
<svg version="1.0" xmlns="http://www.w3.org/2000/svg"
 width="120.000000pt" height="120.000000pt" viewBox="0 0 120.000000 120.000000"
 preserveAspectRatio="xMidYMid meet">
<metadata>
Created by potrace 1.14, written by Peter Selinger 2001-2017
</metadata>
<g transform="translate(0.000000,120.000000) scale(0.100000,-0.100000)"
fill="#000000" stroke="none">
<path d="M376 1178 c-12 -17 -16 -48 -16 -120 l0 -98 -27 -1 c-75 -2 -128 -24
-175 -74 -47 -50 -67 -102 -64 -171 4 -133 102 -230 234 -233 l32 -1 0 -220
c0 -207 1 -221 20 -240 24 -24 48 -25 78 -4 22 15 22 19 22 240 l0 224 119 0
119 0 3 -118 c4 -109 6 -122 37 -184 51 -105 133 -162 247 -174 42 -5 61 -2
80 10 51 33 20 106 -45 106 -85 0 -169 64 -189 144 -6 25 -11 86 -11 136 0 83
2 92 20 97 29 8 94 45 126 73 77 66 126 179 123 280 -4 130 -85 258 -196 310
-71 33 -121 40 -325 40 -192 0 -197 -1 -212 -22z m475 -121 c110 -55 163 -180
125 -293 -21 -63 -75 -124 -122 -138 -18 -5 -23 0 -33 36 -38 131 -144 237
-279 278 l-57 18 -3 62 -3 62 168 -4 c137 -2 175 -6 204 -21z m-491 -337 l0
-120 -26 0 c-64 0 -124 58 -124 120 0 61 57 119 118 120 l32 0 0 -120z m185
91 c58 -26 102 -67 135 -125 49 -85 48 -86 -85 -86 l-115 0 0 115 c0 127 -1
126 65 96z"/>
</g>
</svg>
