<?xml version="1.0" standalone="no"?>
<!DOCTYPE svg PUBLIC "-//W3C//DTD SVG 20010904//EN"
 "http://www.w3.org/TR/2001/REC-SVG-20010904/DTD/svg10.dtd">
<svg version="1.0" xmlns="http://www.w3.org/2000/svg"
 width="892.000000pt" height="892.000000pt" viewBox="0 0 892.000000 892.000000"
 preserveAspectRatio="xMidYMid meet">
<metadata>
Created by potrace 1.14, written by Peter Selinger 2001-2017
</metadata>
<g transform="translate(0.000000,892.000000) scale(0.100000,-0.100000)"
fill="#000000" stroke="none">
<path d="M3035 8913 c-36 -8 -110 -37 -115 -44 -3 -4 -12 -9 -19 -11 -41 -9
-133 -108 -171 -183 -16 -33 -34 -84 -40 -113 -5 -30 -10 -309 -10 -670 0
-339 0 -647 0 -683 l0 -65 -170 -2 c-94 0 -187 -3 -208 -6 -20 -3 -62 -8 -92
-11 -104 -10 -329 -71 -427 -116 -69 -31 -98 -42 -105 -41 -5 1 -8 -2 -8 -7 0
-5 -8 -11 -17 -14 -55 -18 -205 -115 -313 -202 -137 -110 -297 -287 -365 -402
-11 -18 -23 -33 -28 -33 -4 0 -6 -4 -3 -9 3 -5 -1 -14 -9 -21 -8 -7 -15 -18
-15 -25 0 -8 -4 -15 -8 -17 -18 -7 -130 -258 -149 -333 -3 -11 -7 -27 -10 -35
-3 -8 -7 -19 -8 -25 -2 -5 -10 -39 -18 -75 -9 -36 -19 -83 -22 -105 -3 -22 -9
-58 -13 -80 -15 -87 -5 -477 14 -537 5 -18 13 -51 20 -88 9 -51 55 -201 75
-245 19 -43 32 -80 31 -87 -1 -5 2 -8 6 -8 4 0 14 -16 21 -36 13 -35 55 -110
93 -166 10 -15 18 -30 18 -32 0 -3 6 -14 14 -23 8 -10 36 -47 63 -83 59 -80
262 -284 323 -325 25 -16 47 -33 50 -37 14 -18 146 -97 250 -149 158 -79 350
-142 500 -164 25 -4 56 -9 70 -11 14 -2 117 -6 229 -9 112 -2 206 -6 208 -9 3
-2 6 -719 8 -1593 1 -873 4 -1597 5 -1608 1 -11 17 -52 35 -91 56 -122 175
-219 310 -251 22 -5 151 -5 175 0 74 16 163 63 219 116 58 55 91 106 119 186
l21 60 1 1589 c0 874 2 1592 5 1594 6 6 1764 7 1769 1 3 -3 6 -304 9 -669 2
-366 6 -676 10 -690 3 -14 8 -50 11 -80 2 -30 7 -62 10 -70 2 -8 8 -33 11 -55
9 -59 12 -73 30 -145 8 -36 17 -72 19 -80 13 -53 50 -167 59 -177 5 -7 7 -13
4 -13 -4 0 2 -20 13 -44 10 -24 16 -47 13 -50 -4 -3 -1 -6 5 -6 6 0 13 -13 17
-29 9 -44 115 -256 180 -360 97 -157 203 -291 334 -421 135 -133 133 -132 244
-214 119 -88 181 -125 312 -190 119 -58 203 -96 215 -96 6 0 18 -4 28 -10 68
-38 416 -119 582 -135 79 -8 233 -18 295 -19 215 -4 371 86 453 262 33 71 36
85 38 179 1 57 -2 103 -7 103 -5 0 -8 3 -7 8 8 31 -49 137 -107 197 -92 97
-187 135 -349 141 -134 5 -235 12 -266 19 -14 3 -45 8 -70 11 -24 3 -47 7 -51
9 -3 2 -19 7 -36 10 -101 17 -378 131 -421 172 -7 7 -19 13 -27 13 -7 0 -15 3
-17 8 -1 4 -25 24 -53 45 -140 106 -284 279 -374 449 -43 81 -109 231 -115
263 -2 5 -12 42 -24 80 -11 39 -23 81 -26 95 -3 14 -7 36 -10 50 -35 156 -37
215 -37 904 -1 412 3 612 10 619 5 5 59 25 118 44 136 42 125 39 148 48 156
62 267 115 395 188 58 34 107 63 110 67 3 3 31 23 63 43 53 36 181 134 236
181 39 35 234 229 268 268 17 19 48 58 68 84 21 27 41 51 45 54 3 3 43 61 88
130 45 69 85 130 89 135 5 6 21 35 36 65 16 30 37 71 47 90 57 109 167 393
175 450 0 3 4 11 8 18 5 6 6 12 3 12 -3 0 1 18 9 40 8 22 12 40 10 40 -2 0 1
15 6 33 5 17 12 48 15 67 3 19 7 42 10 51 2 9 7 34 10 55 25 171 29 236 29
424 0 220 -10 344 -40 490 -2 14 -10 50 -16 80 -25 127 -102 368 -141 444 -5
10 -11 26 -13 36 -2 10 -30 72 -63 137 -182 361 -427 663 -737 908 -21 17 -46
38 -56 48 -11 9 -23 17 -27 17 -4 0 -23 13 -42 30 -19 16 -41 29 -47 30 -7 0
-13 5 -13 10 0 6 -6 10 -13 10 -7 0 -23 9 -35 20 -12 11 -28 20 -37 20 -8 0
-15 3 -15 8 0 9 -39 32 -150 87 -240 120 -424 186 -655 234 -133 28 -142 30
-200 37 -27 3 -61 8 -75 11 -31 7 -2797 13 -2825 6z m2745 -894 c36 -5 79 -12
95 -15 52 -10 109 -22 135 -29 14 -3 36 -8 49 -11 13 -3 31 -9 40 -13 9 -5 21
-10 26 -11 45 -10 245 -92 245 -101 0 -4 12 -10 26 -13 15 -4 41 -18 59 -32
17 -13 35 -24 39 -24 8 0 144 -92 179 -120 95 -77 193 -175 287 -286 32 -37
130 -180 130 -189 0 -3 13 -26 30 -50 16 -24 30 -51 30 -59 0 -9 4 -16 10 -16
5 0 13 -12 16 -27 4 -16 12 -34 17 -41 30 -37 125 -346 132 -427 1 -16 6 -50
11 -75 16 -89 7 -509 -12 -541 -2 -3 -6 -21 -9 -40 -15 -90 -92 -329 -110
-341 -5 -4 -7 -8 -3 -8 9 0 -63 -144 -115 -230 -142 -233 -380 -465 -622 -607
-38 -22 -229 -115 -239 -117 -6 -1 -16 -5 -23 -9 -10 -6 -21 26 -37 113 -8 41
-36 153 -48 190 -11 34 -15 50 -16 60 -1 10 -54 155 -67 185 -7 17 -16 41 -20
55 -9 31 -154 327 -193 395 -54 94 -195 304 -232 346 -8 10 -19 24 -25 31 -22
30 -120 145 -149 175 -17 17 -50 51 -72 75 -118 124 -450 398 -482 398 -6 0
-12 4 -14 8 -4 9 -134 92 -144 92 -4 0 -15 6 -23 14 -17 14 -222 120 -301 154
-106 47 -324 127 -340 125 -3 -1 -12 3 -21 8 -9 4 -27 10 -40 13 -13 3 -79 19
-146 36 -68 16 -126 29 -130 28 -5 -1 -35 4 -69 11 l-61 13 0 459 0 459 1071
-1 c594 0 1100 -5 1136 -10z m-3100 -1816 c3 -471 -1 -1716 -4 -1722 -5 -8
-298 -6 -353 3 -131 21 -295 91 -398 169 -56 42 -183 174 -190 198 -4 10 -11
19 -16 19 -5 0 -9 6 -9 14 0 8 -4 16 -8 18 -19 8 -98 198 -109 263 -2 17 -9
50 -13 75 -9 47 -6 237 4 280 4 14 8 38 11 53 7 38 47 142 78 202 77 152 240
313 380 375 24 11 46 23 51 27 4 4 11 8 14 9 4 0 39 10 77 22 39 12 80 23 92
25 12 2 25 5 27 8 3 3 86 6 186 8 l180 3 0 -49z m1085 -44 c22 -6 49 -15 60
-19 191 -74 255 -102 335 -144 52 -27 97 -53 98 -58 2 -4 8 -8 13 -8 10 0 182
-112 204 -133 7 -7 23 -21 36 -31 119 -96 207 -182 336 -329 35 -39 183 -251
183 -261 0 -4 12 -25 27 -49 62 -96 193 -400 184 -425 -1 -1 6 -16 15 -33 8
-17 13 -33 10 -36 -3 -3 1 -21 9 -39 8 -19 12 -34 9 -34 -3 0 -2 -5 2 -12 4
-7 9 -26 11 -43 l3 -31 -857 2 c-472 1 -860 2 -863 3 -5 1 -6 1702 -1 1722 1
6 73 -11 186 -42z"/>
</g>
</svg>
