<svg width="32" height="32" fill="none" xmlns="http://www.w3.org/2000/svg"><path fill-rule="evenodd" clip-rule="evenodd" d="M15.999.333C7.164.333 0 7.525 0 16.398a16.06 16.06 0 0 0 10.943 15.24c.8.148 1.092-.348 1.092-.773 0-.382-.014-1.392-.022-2.732-4.451.97-5.39-2.153-5.39-2.153-.727-1.856-1.776-2.35-1.776-2.35-1.453-.997.11-.977.11-.977 1.605.114 2.45 1.656 2.45 1.656 1.428 2.455 3.745 1.746 4.657 1.334.145-1.038.559-1.746 1.016-2.147-3.553-.406-7.288-1.783-7.288-7.939 0-1.754.623-3.187 1.647-4.31-.165-.407-.714-2.04.156-4.251 0 0 1.344-.432 4.4 1.646a15.303 15.303 0 0 1 4.006-.541 15.32 15.32 0 0 1 4.006.541c3.054-2.078 4.395-1.646 4.395-1.646.873 2.211.324 3.844.159 4.25 1.026 1.124 1.645 2.557 1.645 4.311 0 6.17-3.741 7.53-7.305 7.927.574.496 1.086 1.475 1.086 2.974 0 2.148-.02 3.88-.02 4.407 0 .43.288.93 1.1.772A16.062 16.062 0 0 0 32 16.397C32 7.526 24.836.334 15.999.334Z" fill="#222"/></svg>