<svg width="26" height="25" viewBox="0 0 26 25" fill="none" xmlns="http://www.w3.org/2000/svg">
<path d="M24.935 7.34294C24.875 6.01241 24.6599 5.10204 24.3548 4.30673C24.0346 3.4864 23.6095 2.78612 22.9142 2.09584C22.2189 1.40556 21.5236 0.970389 20.7033 0.655262C19.908 0.345138 18.9976 0.135054 17.6671 0.0750301C16.3316 0.015006 15.9064 0 12.515 0C9.11866 0 8.69349 0.015006 7.36296 0.0750301C6.03243 0.135054 5.12206 0.35014 4.32674 0.655262C3.50141 0.975391 2.80113 1.40056 2.11085 2.09584C1.42058 2.79112 0.985403 3.4864 0.670277 4.30673C0.365155 5.10204 0.150069 6.01241 0.0900447 7.34294C0.0300207 8.67848 0.0150146 9.10365 0.0150146 12.495C0.0150146 15.8914 0.0300207 16.3165 0.0900447 17.6471C0.150069 18.9776 0.365155 19.888 0.670277 20.6833C0.990405 21.5036 1.41558 22.2039 2.11085 22.8942C2.80113 23.5894 3.50141 24.0196 4.32174 24.3347C5.11706 24.6449 6.02742 24.855 7.35796 24.915C8.69349 24.975 9.11866 24.99 12.51 24.99C15.9064 24.99 16.3316 24.975 17.6621 24.915C18.9926 24.855 19.903 24.6399 20.6983 24.3347C21.5186 24.0146 22.2189 23.5894 22.9092 22.8942C23.5995 22.1989 24.0346 21.5036 24.3498 20.6833C24.6599 19.888 24.87 18.9776 24.93 17.6471C24.99 16.3115 25.005 15.8864 25.005 12.495C25.005 9.10365 24.995 8.67347 24.935 7.34294ZM22.6891 17.547C22.6341 18.7675 22.429 19.4328 22.2589 19.868C22.0338 20.4482 21.7587 20.8684 21.3186 21.3085C20.8784 21.7487 20.4632 22.0138 19.878 22.2489C19.4378 22.419 18.7725 22.6241 17.557 22.6791C16.2415 22.7391 15.8464 22.7541 12.505 22.7541C9.16368 22.7541 8.76852 22.7391 7.45299 22.6791C6.23251 22.6241 5.56724 22.419 5.13206 22.2489C4.55183 22.0238 4.13166 21.7487 3.69149 21.3085C3.25131 20.8684 2.9862 20.4532 2.75111 19.868C2.58104 19.4278 2.37596 18.7625 2.32094 17.547C2.26091 16.2315 2.24591 15.8363 2.24591 12.495C2.24591 9.15367 2.26091 8.75851 2.32094 7.44298C2.37596 6.22249 2.58104 5.55723 2.75111 5.12205C2.9762 4.54182 3.25131 4.12165 3.69149 3.68147C4.13166 3.2413 4.54683 2.97619 5.13206 2.7411C5.57224 2.57103 6.23751 2.36595 7.45299 2.31093C8.76852 2.2509 9.16368 2.2359 12.505 2.2359C15.8464 2.2359 16.2415 2.2509 17.557 2.31093C18.7775 2.36595 19.4428 2.57103 19.878 2.7411C20.4582 2.96619 20.8784 3.2413 21.3186 3.68147C21.7587 4.12165 22.0238 4.53682 22.2589 5.12205C22.429 5.56223 22.6341 6.22749 22.6891 7.44298C22.7491 8.75851 22.7641 9.15367 22.7641 12.495C22.7641 15.8363 22.7441 16.2315 22.6891 17.547Z" fill="url(#paint0_linear_818_3324)"/>
<path d="M12.505 6.07239C8.95355 6.07239 6.0824 8.94854 6.0824 12.495C6.0824 16.0464 8.95855 18.9175 12.505 18.9175C16.0514 18.9175 18.9275 16.0364 18.9275 12.495C18.9275 8.94354 16.0564 6.07239 12.505 6.07239ZM12.505 16.6616C10.204 16.6616 8.3383 14.7959 8.3383 12.495C8.3383 10.194 10.204 8.32829 12.505 8.32829C14.8059 8.32829 16.6716 10.194 16.6716 12.495C16.6716 14.7959 14.8059 16.6616 12.505 16.6616Z" fill="url(#paint1_linear_818_3324)"/>
<path d="M19.1777 7.32289C20.0065 7.32289 20.6783 6.65105 20.6783 5.82229C20.6783 4.99353 20.0065 4.32169 19.1777 4.32169C18.349 4.32169 17.6771 4.99353 17.6771 5.82229C17.6771 6.65105 18.349 7.32289 19.1777 7.32289Z" fill="#BC30A0"/>
<path d="M0 12.495C0 15.8914 0.015006 16.3165 0.0750301 17.6471C0.135054 18.9776 0.35014 19.888 0.655263 20.6833C0.975391 21.5036 1.40056 22.2039 2.09584 22.8942C2.78612 23.5844 3.4864 24.0196 4.30673 24.3347C5.10204 24.6449 6.01241 24.855 7.34294 24.915C8.67848 24.975 9.10365 24.99 12.495 24.99C15.8914 24.99 16.3165 24.975 17.6471 24.915C18.9776 24.855 19.888 24.6399 20.6833 24.3347C21.5036 24.0146 22.2039 23.5894 22.8942 22.8942C23.5844 22.2039 24.0196 21.5036 24.3347 20.6833C24.6449 19.888 24.855 18.9776 24.915 17.6471C24.975 16.3115 24.99 15.8864 24.99 12.495C24.99 9.09864 24.975 8.67347 24.915 7.34294C24.855 6.01241 24.6399 5.10204 24.3347 4.30673C24.0146 3.4864 23.5895 2.78612 22.8942 2.09584C22.2089 1.40056 21.5086 0.970389 20.6883 0.655262C19.893 0.345138 18.9826 0.135054 17.6521 0.0750301C16.3165 0.015006 15.8914 0 12.5 0C9.10365 0 8.67848 0.015006 7.34794 0.0750301C6.01741 0.135054 5.10705 0.35014 4.31173 0.655262C3.4914 0.975391 2.79112 1.40056 2.10084 2.09584C1.41057 2.79112 0.975391 3.4864 0.660265 4.30673C0.35014 5.10204 0.135054 6.01241 0.0750301 7.34294C0.015006 8.67347 0 9.09864 0 12.495ZM2.2559 12.495C2.2559 9.15867 2.27091 8.75851 2.33093 7.44298C2.38596 6.22249 2.59104 5.55723 2.76111 5.12205C2.9862 4.54182 3.26131 4.12165 3.70148 3.68147C4.14166 3.2413 4.55683 2.97619 5.14206 2.7411C5.58224 2.57103 6.2475 2.36595 7.46299 2.31093C8.77852 2.2509 9.17367 2.2359 12.515 2.2359C15.8564 2.2359 16.2515 2.2509 17.567 2.31093C18.7875 2.36595 19.4528 2.57103 19.888 2.7411C20.4682 2.96619 20.8884 3.2413 21.3285 3.68147C21.7687 4.12165 22.0338 4.53682 22.2689 5.12205C22.439 5.56223 22.6441 6.22749 22.6991 7.44298C22.7591 8.75851 22.7741 9.15367 22.7741 12.495C22.7741 15.8363 22.7591 16.2315 22.6991 17.547C22.6441 18.7675 22.439 19.4328 22.2689 19.868C22.0438 20.4482 21.7687 20.8684 21.3285 21.3085C20.8884 21.7487 20.4732 22.0138 19.888 22.2489C19.4478 22.419 18.7825 22.6241 17.567 22.6791C16.2515 22.7391 15.8564 22.7541 12.515 22.7541C9.17367 22.7541 8.77852 22.7391 7.46299 22.6791C6.2425 22.6241 5.57723 22.419 5.14206 22.2489C4.56183 22.0238 4.14166 21.7487 3.70148 21.3085C3.26131 20.8684 2.9962 20.4532 2.76111 19.868C2.59104 19.4278 2.38596 18.7625 2.33093 17.547C2.26591 16.2315 2.2559 15.8313 2.2559 12.495Z" fill="url(#paint2_linear_818_3324)"/>
<defs>
<linearGradient id="paint0_linear_818_3324" x1="21.1454" y1="1.91091" x2="3.06891" y2="24.0714" gradientUnits="userSpaceOnUse">
<stop stop-color="#AE3DAE"/>
<stop offset="0.0468721" stop-color="#B23BA6"/>
<stop offset="0.1216" stop-color="#BD368E"/>
<stop offset="0.2148" stop-color="#CE2E69"/>
<stop offset="0.3216" stop-color="#E62335"/>
<stop offset="0.418" stop-color="#FF1800"/>
</linearGradient>
<linearGradient id="paint1_linear_818_3324" x1="15.5679" y1="7.34375" x2="9.00226" y2="18.3829" gradientUnits="userSpaceOnUse">
<stop stop-color="#E12F6A"/>
<stop offset="0.1705" stop-color="#EA3751"/>
<stop offset="0.3563" stop-color="#F13D3E"/>
<stop offset="0.5467" stop-color="#F64133"/>
<stop offset="0.7469" stop-color="#F7422F"/>
<stop offset="0.7946" stop-color="#F74C2F"/>
<stop offset="0.8743" stop-color="#F7652F"/>
<stop offset="0.9757" stop-color="#F78F2E"/>
<stop offset="1" stop-color="#F79A2E"/>
</linearGradient>
<linearGradient id="paint2_linear_818_3324" x1="18.1683" y1="-1.02879" x2="7.11052" y2="25.3449" gradientUnits="userSpaceOnUse">
<stop offset="0.2341" stop-color="#9E35A5" stop-opacity="0"/>
<stop offset="0.4512" stop-color="#D42F7F" stop-opacity="0.5"/>
<stop offset="0.7524" stop-color="#F7772E"/>
<stop offset="0.9624" stop-color="#FEF780"/>
</linearGradient>
</defs>
</svg>
