<svg width="32" height="32" fill="none" xmlns="http://www.w3.org/2000/svg"><path d="M32 6.078c-1.177.521-2.443.875-3.77 1.031a6.588 6.588 0 0 0 2.885-3.63 13.227 13.227 0 0 1-4.167 1.594 6.565 6.565 0 0 0-11.36 4.49c0 .515.058 1.015.172 1.494A18.61 18.61 0 0 1 2.23 4.198 6.513 6.513 0 0 0 1.338 7.5a6.554 6.554 0 0 0 2.921 5.464 6.526 6.526 0 0 1-2.974-.823v.083a6.562 6.562 0 0 0 5.266 6.438 6.534 6.534 0 0 1-1.73.234c-.421 0-.838-.042-1.233-.12a6.576 6.576 0 0 0 6.13 4.563 13.167 13.167 0 0 1-8.151 2.807c-.532 0-1.052-.031-1.568-.094a18.566 18.566 0 0 0 10.063 2.953c12.078 0 18.682-10.005 18.682-18.682 0-.281-.01-.568-.021-.849A13.447 13.447 0 0 0 32 6.078Z" fill="#222"/></svg>