<svg width="200" height="200" viewBox="0 0 200 200" fill="none" xmlns="http://www.w3.org/2000/svg">
<path d="M71.9131 133.075C62.9809 124.675 57.7267 113.125 57.7267 99.9996C57.7267 86.8746 62.9809 75.3246 71.3877 66.9246C78.7436 59.5746 78.7436 48.0246 71.3877 40.6746C64.0317 33.3246 52.4725 33.3246 45.1166 40.6746C30.4047 55.8996 20.9471 76.8996 20.9471 99.9996C20.9471 123.1 30.4047 144.1 45.642 159.325C52.9979 166.675 64.5572 166.675 71.9131 159.325C78.7436 151.975 78.7436 140.425 71.9131 133.075Z" fill="#FAE501"/>
<path d="M71.9133 66.925C80.32 58 91.8793 52.75 105.015 52.75C118.15 52.75 129.71 58 138.116 66.4C145.472 73.75 157.032 73.75 164.388 66.4C171.743 59.05 171.743 47.5 164.388 40.15C149.15 25.45 128.133 16 105.015 16C81.8963 16 60.8794 25.45 45.6422 40.675C38.2863 48.025 38.2863 59.575 45.6422 66.925C52.9981 73.75 64.5574 73.75 71.9133 66.925Z" fill="#4FB5E1"/>
<path d="M138.116 133.075C129.71 142 118.15 147.25 105.015 147.25C91.8793 147.25 80.32 142 71.9133 133.6C64.5574 126.25 52.9981 126.25 45.6422 133.6C38.2863 140.95 38.2863 152.5 45.6422 159.85C60.8794 174.55 81.8963 184 105.015 184C128.133 184 149.15 174.55 164.388 159.325C171.743 151.975 171.743 140.425 164.388 133.075C157.032 126.25 145.472 126.25 138.116 133.075Z" fill="#F05751"/>
<path d="M58.7775 72.1753C68.9339 72.1753 77.1672 63.9485 77.1672 53.8003C77.1672 43.6521 68.9339 35.4253 58.7775 35.4253C48.6211 35.4253 40.3877 43.6521 40.3877 53.8003C40.3877 63.9485 48.6211 72.1753 58.7775 72.1753Z" fill="#0681B6"/>
<path d="M58.7775 164.575C68.9339 164.575 77.1672 156.348 77.1672 146.2C77.1672 136.051 68.9339 127.825 58.7775 127.825C48.6211 127.825 40.3877 136.051 40.3877 146.2C40.3877 156.348 48.6211 164.575 58.7775 164.575Z" fill="#CD4739"/>
</svg>
