<svg width="200" height="200" viewBox="0 0 200 200" fill="none" xmlns="http://www.w3.org/2000/svg">
<path d="M71.2556 185C86.8465 185 99.4999 172.381 99.4999 156.833V128.667H71.2556C55.6647 128.667 43.0112 141.285 43.0112 156.833C43.0112 172.381 55.6647 185 71.2556 185Z" fill="#0ACF83"/>
<path d="M43.0112 100.5C43.0112 84.9522 55.6647 72.3335 71.2556 72.3335H99.4999V128.667H71.2556C55.6647 128.667 43.0112 116.048 43.0112 100.5Z" fill="#A259FF"/>
<path d="M43.0115 44.1667C43.0115 28.6187 55.6649 16 71.2558 16H99.5002V72.3333H71.2558C55.6649 72.3333 43.0115 59.7147 43.0115 44.1667Z" fill="#F24E1E"/>
<path d="M99.5 16H127.744C143.335 16 155.989 28.6187 155.989 44.1667C155.989 59.7147 143.335 72.3333 127.744 72.3333H99.5V16Z" fill="#FF7262"/>
<path d="M155.989 100.5C155.989 116.048 143.335 128.667 127.744 128.667C112.153 128.667 99.5 116.048 99.5 100.5C99.5 84.9522 112.153 72.3335 127.744 72.3335C143.335 72.3335 155.989 84.9522 155.989 100.5Z" fill="#1ABCFE"/>
</svg>
