<svg width="200" height="200" viewBox="0 0 200 200" fill="none" xmlns="http://www.w3.org/2000/svg">
<path d="M192.839 91.1249L108.36 6.6496C103.497 1.78334 95.6064 1.78334 90.737 6.6496L73.1963 24.1934L95.4476 46.4456C100.62 44.6993 106.55 45.8714 110.671 49.993C114.817 54.1404 115.978 60.1219 114.187 65.312L135.635 86.7572C140.825 84.9682 146.809 86.1247 150.955 90.2761C156.746 96.0651 156.746 105.45 150.955 111.243C145.16 117.037 135.778 117.037 129.98 111.243C125.625 106.884 124.548 100.484 126.756 95.1175L106.752 75.1151V127.751C108.162 128.45 109.495 129.381 110.671 130.554C116.462 136.344 116.462 145.727 110.671 151.526C104.881 157.315 95.4912 157.315 89.7048 151.526C83.9141 145.727 83.9141 136.344 89.7048 130.554C91.136 129.124 92.7934 128.043 94.5618 127.319V74.1964C92.7934 73.4724 91.14 72.4 89.7048 70.9605C85.319 66.5763 84.2637 60.1383 86.5134 54.7515L64.5762 32.8112L6.64898 90.7334C1.78367 95.6037 1.78367 103.494 6.64898 108.36L91.1318 192.836C95.9955 197.701 103.884 197.701 108.755 192.836L192.839 108.752C197.706 103.885 197.706 95.9903 192.839 91.1249" fill="#F03C2E"/>
</svg>
