<svg width="200" height="200" viewBox="0 0 200 200" fill="none" xmlns="http://www.w3.org/2000/svg">
<circle cx="100" cy="100" r="100" fill="white"/>
<path fill-rule="evenodd" clip-rule="evenodd" d="M143.5 42H56.5C49.25 42 42 49.25 42 56.5V143.5C42 151.508 48.4919 158 56.5 158H143.5C151.508 158 158 151.508 158 143.5V56.5C158 48.4919 151.508 42 143.5 42ZM126.946 87.3832L122.845 83.2822L114.642 91.4845L118.743 95.5858L126.946 87.3832ZM112.079 77.6431C113.494 76.2275 115.789 76.2275 117.205 77.6431L122.844 83.2822L81.8319 124.295L73.6295 116.092L112.079 77.6431ZM95.6739 61.2386C97.0895 59.823 99.3848 59.823 100.8 61.2386L106.44 66.8778L106.439 66.8781L110.54 70.9788L102.338 79.1813L98.2368 75.0805L73.6299 99.6875L77.731 103.788L69.5285 111.991L65.4275 107.89L65.4274 107.89L59.7883 102.251C58.3726 100.835 58.3726 98.5399 59.7883 97.1243L95.6739 61.2386ZM139.249 99.6872L143.351 103.788L135.148 111.991L131.047 107.89L139.249 99.6872ZM90.0342 132.497L90.0345 132.496L85.9339 128.396L94.1366 120.193L98.2368 124.294L128.483 94.0477C129.898 92.6318 132.194 92.6318 133.61 94.0477L139.249 99.6868L100.8 138.136C99.3841 139.552 97.0888 139.552 95.6732 138.136L90.0342 132.497Z" fill="#2B2C30"/>
</svg>
