<svg width="200" height="200" viewBox="0 0 200 200" fill="none" xmlns="http://www.w3.org/2000/svg">
<path d="M139.023 72.4876C139.939 72.935 140.762 73.5521 141.448 74.306C141.528 74.3851 141.528 74.3851 141.609 74.3851H141.69L160.282 66.5583C160.363 66.4792 160.443 66.4006 160.443 66.3215C160.443 66.2424 160.443 66.1633 160.363 66.0842L142.983 49.0866C142.902 49.0075 142.822 49.0075 142.822 49.0075H142.741C142.66 49.0075 142.579 49.0866 142.579 49.2447L138.78 72.2508C138.861 72.3299 138.941 72.4876 139.022 72.4876H139.023ZM100.465 57.0716C101.356 58.4238 101.911 59.9688 102.081 61.5779C102.081 61.657 102.162 61.7361 102.243 61.8147L129.888 73.4366H129.969C130.05 73.4366 130.131 73.4366 130.131 73.3575C130.939 72.7248 131.909 72.2508 132.96 71.9345C133.041 71.9345 133.121 71.8554 133.121 71.6972L137.648 43.9481C137.648 43.869 137.648 43.7899 137.567 43.7108L120.27 26.7131C120.189 26.6341 120.189 26.6341 120.108 26.6341C120.027 26.6341 119.947 26.7131 119.947 26.7922L100.466 56.6762C100.385 56.8343 100.385 56.9925 100.466 57.0716H100.465ZM194.879 99.8418L165.213 70.7487C165.132 70.6696 165.051 70.6696 165.051 70.6696H164.971L144.842 79.1287C144.762 79.2078 144.681 79.2868 144.681 79.3655C144.681 79.445 144.762 79.6032 144.842 79.6032L194.475 100.395H194.555C194.636 100.395 194.717 100.395 194.717 100.316L194.878 100.158C195.04 100.158 195.04 99.9214 194.878 99.8418H194.879ZM189.948 104.585L142.337 84.6631H142.256C142.175 84.6631 142.095 84.6631 142.014 84.7417C140.72 86.4811 138.78 87.5877 136.517 87.9041C136.436 87.9041 136.274 87.9832 136.274 88.1408L131.182 119.053C131.182 119.132 131.182 119.211 131.263 119.29C133.041 120.634 134.092 122.611 134.334 124.824C134.334 124.982 134.415 125.061 134.577 125.061L163.354 130.991H163.434C163.515 130.991 163.596 130.991 163.596 130.912L189.948 105.06C190.029 104.981 190.029 104.902 190.029 104.823C190.029 104.744 190.029 104.664 189.948 104.585V104.585ZM126.897 78.1802L100.869 67.2695H100.788C100.707 67.2695 100.627 67.3491 100.546 67.4282C98.7674 70.1161 95.7768 71.6972 92.543 71.6972C92.0585 71.6972 91.573 71.6182 91.0073 71.5391H90.9266C90.8458 71.5391 90.7651 71.6182 90.6843 71.6972L69.2628 104.506C69.2236 104.55 69.202 104.606 69.202 104.664C69.202 104.723 69.2236 104.779 69.2628 104.823C69.3435 104.902 69.4243 104.902 69.505 104.902H69.5862L126.736 80.7885C126.817 80.7099 126.897 80.6308 126.897 80.5517V79.8404C126.897 79.3659 126.978 78.8914 127.059 78.496C127.059 78.3383 126.978 78.2592 126.897 78.1802V78.1802ZM158.261 135.576L132.96 130.438H132.879C132.798 130.438 132.718 130.517 132.637 130.517C131.667 131.702 130.454 132.651 128.999 133.204C128.918 133.204 128.838 133.363 128.838 133.441L122.775 170.283C122.775 170.441 122.856 170.519 122.936 170.599H123.098C123.179 170.599 123.26 170.599 123.26 170.52L158.342 136.13C158.423 136.051 158.423 135.971 158.423 135.892C158.423 135.656 158.342 135.576 158.261 135.576V135.576ZM122.937 133.046C120.511 132.097 118.733 129.963 118.087 127.512C118.087 127.433 118.006 127.354 117.844 127.275L70.9604 117.709H70.8797C70.7989 117.709 70.7182 117.788 70.6374 117.867C70.3947 118.263 70.2327 118.579 69.9905 118.895C69.9513 118.938 69.9297 118.994 69.9297 119.053C69.9297 119.111 69.9513 119.168 69.9905 119.211L112.671 180.244C112.751 180.323 112.751 180.323 112.832 180.323C112.913 180.323 112.994 180.323 112.994 180.244L115.581 177.714C115.581 177.635 115.662 177.635 115.662 177.556L122.937 133.284C123.098 133.284 123.098 133.125 122.937 133.046V133.046ZM71.9304 112.096C71.9304 112.254 72.0111 112.333 72.1726 112.333L118.652 121.82H118.733C118.814 121.82 118.895 121.741 118.975 121.662C120.35 119.29 122.775 117.709 125.523 117.551C125.685 117.551 125.765 117.472 125.765 117.314L130.778 86.8765C130.778 86.7974 130.778 86.6392 130.616 86.6392C130.293 86.4024 129.969 86.1647 129.565 85.7698C129.484 85.6907 129.403 85.6907 129.403 85.6907H129.323L71.8496 109.961C71.6881 110.04 71.6881 110.119 71.6881 110.277C71.7689 110.91 71.9304 111.463 71.9304 112.096V112.096ZM52.4497 119.765C52.2074 119.448 51.9647 119.132 51.722 118.737C51.6412 118.657 51.5605 118.579 51.4797 118.579H51.399L31.3521 127.038C31.2713 127.038 31.1906 127.117 31.1906 127.196C31.1906 127.275 31.1906 127.354 31.2713 127.433L41.0516 136.999C41.1323 137.078 41.2135 137.078 41.2135 137.078C41.2943 137.078 41.375 136.999 41.4558 136.92L52.5304 119.923C52.5304 119.923 52.5304 119.844 52.4497 119.765V119.765ZM65.7064 122.847C65.6257 122.769 65.5449 122.69 65.4642 122.69H65.383C63.928 123.322 62.4731 123.638 60.937 123.638C59.7248 123.638 58.5928 123.48 57.3802 123.085H57.2994C57.2187 123.085 57.1379 123.164 57.0572 123.243L45.4168 141.11L45.3361 141.189C45.2969 141.232 45.2753 141.289 45.2753 141.347C45.2753 141.406 45.2969 141.462 45.3361 141.505L98.8481 193.921C98.9289 194 99.0096 194 99.0096 194C99.0904 194 99.1711 194 99.1711 193.921L108.548 184.671C108.587 184.628 108.609 184.571 108.609 184.513C108.609 184.454 108.587 184.398 108.548 184.355L65.7064 122.848V122.847ZM58.1886 102.214C58.2694 102.292 58.3501 102.372 58.4309 102.372H58.5116C59.3205 102.214 60.2097 102.056 61.0177 102.056C61.9069 102.056 62.8769 102.214 63.7661 102.451H63.8468C63.9276 102.451 64.0083 102.372 64.0895 102.292L85.7529 69.0884C85.792 69.045 85.8136 68.9887 85.8136 68.9303C85.8136 68.8719 85.792 68.8156 85.7529 68.7721C84.0557 67.0328 83.0857 64.7403 83.0857 62.2892C83.0857 61.5779 83.1665 60.8662 83.328 60.1549C83.328 59.9967 83.2472 59.9176 83.1665 59.8386C80.4181 58.6528 56.0867 48.533 56.0867 48.4544H56.006C55.9252 48.4544 55.8445 48.4544 55.8445 48.533L35.2319 68.7721C35.1927 68.8156 35.1711 68.8719 35.1711 68.9303C35.1711 68.9887 35.1927 69.045 35.2319 69.0884L58.1886 102.213V102.214ZM60.5327 44.343C60.5327 44.343 85.1064 54.6205 86.1571 55.095H86.2378C86.3186 55.095 86.3186 55.095 86.3993 55.0159C88.0975 53.672 90.2801 52.8816 92.4622 52.8816C93.5129 52.8816 94.5641 53.0393 95.6148 53.3556H95.6956C95.7763 53.3556 95.8571 53.2766 95.9378 53.1975L115.904 22.6022C115.943 22.5588 115.965 22.5025 115.965 22.4441C115.965 22.3857 115.943 22.3294 115.904 22.2859L99.3331 6.07908C99.2524 6 99.2524 6 99.1716 6C99.0909 6 99.0101 6 99.0101 6.07908L60.5327 43.8685C60.452 43.9481 60.452 44.0271 60.452 44.1058C60.3712 44.2639 60.452 44.2639 60.5327 44.343V44.343ZM50.9947 107.985C51.0755 107.985 51.1562 107.906 51.237 107.827C51.722 106.878 52.4497 106.008 53.1769 105.218C53.2159 105.174 53.2374 105.118 53.2374 105.06C53.2374 105.001 53.2159 104.945 53.1769 104.902C52.9346 104.585 31.0286 73.278 31.0286 73.1993C30.9478 73.1203 30.9478 73.1203 30.7863 73.0412C30.7056 73.0412 30.6244 73.0412 30.6244 73.1203L5.08075 98.1025C5 98.1816 5 98.2606 5 98.3397C5 98.4188 5.08075 98.4979 5.24225 98.4979L50.9943 107.985C50.9135 107.985 50.9135 107.985 50.9943 107.985H50.9947ZM48.8929 113.44C48.8929 113.282 48.8121 113.203 48.6506 113.203L8.96055 105.059H8.8798C8.79905 105.059 8.7183 105.139 8.63708 105.218C8.55633 105.296 8.63708 105.454 8.71783 105.533L26.4206 122.927C26.5014 123.006 26.5821 123.006 26.5821 123.006H26.6629L48.6497 113.756C48.8112 113.598 48.8919 113.518 48.8919 113.439L48.8929 113.44Z" fill="url(#paint0_radial_619_3427)"/>
<defs>
<radialGradient id="paint0_radial_619_3427" cx="0" cy="0" r="1" gradientUnits="userSpaceOnUse" gradientTransform="translate(5 6) scale(190 188)">
<stop stop-color="#20C6B7"/>
<stop offset="1" stop-color="#4D9ABF"/>
</radialGradient>
</defs>
</svg>
