<svg width="200" height="200" viewBox="0 0 200 200" fill="none" xmlns="http://www.w3.org/2000/svg">
<path d="M60.1139 78.4754H88.526V80.712H62.7183V97.5452H86.987V99.7818H62.7183V118.263H88.822V120.5H60.1139V78.4754ZM91.0713 78.4754H94.09L107.467 96.9566L121.141 78.4754L139.739 55L109.184 98.8989L124.929 120.5H121.792L107.467 100.841L93.0838 120.5H90.0058L105.869 98.8989L91.0713 78.4754ZM126.054 80.712V78.4754H158.432V80.712H143.515V120.5H140.911V80.712H126.054Z" fill="black"/>
<path d="M24.5692 78.4751H27.8248L72.7169 145.008L54.1652 120.499L27.292 81.6534L27.1737 120.499H24.5692V78.4751Z" fill="black"/>
<path d="M158.169 117.588C158.708 117.588 159.101 117.18 159.101 116.652C159.101 116.124 158.708 115.716 158.169 115.716C157.637 115.716 157.238 116.124 157.238 116.652C157.238 117.18 157.637 117.588 158.169 117.588ZM160.729 115.125C160.729 116.683 161.863 117.701 163.516 117.701C165.277 117.701 166.341 116.652 166.341 114.83V108.416H164.922V114.824C164.922 115.835 164.409 116.376 163.503 116.376C162.692 116.376 162.141 115.873 162.122 115.125H160.729ZM168.197 115.044C168.298 116.664 169.66 117.701 171.688 117.701C173.854 117.701 175.21 116.614 175.21 114.88C175.21 113.517 174.437 112.763 172.562 112.33L171.554 112.085C170.364 111.808 169.882 111.438 169.882 110.791C169.882 109.974 170.63 109.44 171.751 109.44C172.815 109.44 173.55 109.962 173.683 110.797H175.064C174.982 109.271 173.626 108.196 171.77 108.196C169.774 108.196 168.444 109.271 168.444 110.885C168.444 112.217 169.198 113.008 170.851 113.392L172.03 113.674C173.239 113.957 173.772 114.372 173.772 115.063C173.772 115.867 172.935 116.451 171.795 116.451C170.573 116.451 169.724 115.904 169.603 115.044H168.197Z" fill="black"/>
</svg>
