<svg width="200" height="200" viewBox="0 0 200 200" fill="none" xmlns="http://www.w3.org/2000/svg">
<path d="M131.898 120.94C138.017 120.307 142.66 115.032 142.449 108.701C142.238 102.371 136.962 97.3062 130.632 97.3062H130.21C123.668 97.5172 118.604 103.004 118.815 109.545C119.026 112.71 120.292 115.454 122.191 117.353C115.017 131.491 104.044 141.831 87.5843 150.482C76.4004 156.391 64.7945 158.501 53.1886 157.024C43.6928 155.758 36.3072 151.538 31.6649 144.574C24.9123 134.234 24.2793 123.05 29.9767 111.866C33.9861 103.848 40.3166 97.9392 44.3259 94.985C43.4818 92.2418 42.2157 87.5994 41.5827 84.2231C10.9852 106.38 14.1505 136.344 23.4352 150.482C30.3988 161.033 44.5369 167.575 60.1522 167.575C64.3725 167.575 68.5928 167.153 72.8132 166.098C99.8233 160.822 120.292 144.785 131.898 120.94V120.94Z" fill="#764ABC"/>
<path d="M169.037 94.7736C153 75.9931 129.366 65.6533 102.356 65.6533H98.9793C97.0801 61.855 93.0708 59.3228 88.6395 59.3228H88.2174C81.6759 59.5338 76.6115 65.0202 76.8225 71.5617C77.0335 77.8922 82.309 82.9566 88.6395 82.9566H89.0615C93.7039 82.7456 97.7132 79.7914 99.4013 75.7821H103.2C119.237 75.7821 134.43 80.4244 148.146 89.4982C158.697 96.4617 166.294 105.535 170.514 116.508C174.101 125.371 173.89 134.023 170.092 141.408C164.183 152.592 154.266 158.712 141.183 158.712C132.742 158.712 124.723 156.179 120.503 154.28C118.182 156.391 113.961 159.767 111.007 161.877C120.081 166.097 129.366 168.418 138.228 168.418C158.486 168.418 173.468 157.235 179.166 146.051C185.285 133.812 184.863 112.71 169.037 94.7736Z" fill="#764ABC"/>
<path d="M61.8403 124.527C62.0513 130.858 67.3267 135.922 73.6572 135.922H74.0792C80.6208 135.711 85.6852 130.225 85.4741 123.683C85.2631 117.352 79.9877 112.288 73.6572 112.288H73.2352C72.8131 112.288 72.1801 112.288 71.758 112.499C63.1064 98.15 59.5191 82.5347 60.7852 65.6534C61.6292 52.9924 65.8496 42.0195 73.2352 32.9458C79.3547 25.1381 91.1716 21.3398 99.1902 21.1288C121.558 20.7068 131.054 48.561 131.687 59.7449C134.43 60.3779 139.072 61.8551 142.238 62.9101C139.705 28.7254 118.604 11 98.3462 11C79.3547 11 61.8403 24.7161 54.8767 44.9737C45.1699 71.9839 51.5004 97.9389 63.3174 118.408C62.2623 119.885 61.6292 122.206 61.8403 124.527V124.527Z" fill="#764ABC"/>
</svg>
