<svg width="200" height="200" viewBox="0 0 200 200" fill="none" xmlns="http://www.w3.org/2000/svg">
<circle cx="100" cy="100" r="100" fill="white"/>
<path d="M109.06 47.2778C108.154 45.6762 106.838 44.3435 105.246 43.4161C103.654 42.4887 101.844 42 100 42C98.1564 42 96.3459 42.4887 94.7539 43.4161C93.1619 44.3435 91.8455 45.6762 90.9397 47.2778L76.1748 73.0503L79.866 75.0585C90.2661 81.0174 99.0211 89.4574 105.346 99.6217C111.671 109.786 115.369 121.357 116.107 133.298H105.705C104.981 123.205 101.788 113.442 96.4064 104.865C91.0245 96.2877 83.6172 89.1566 74.8325 84.0956L71.1413 81.7527L57.0475 105.852L61.0743 107.86C65.6205 110.555 69.4932 114.245 72.3999 118.652C75.3065 123.059 77.171 128.067 77.8526 133.298H54.0274C53.7656 133.268 53.5146 133.177 53.2947 133.032C53.0747 132.888 52.892 132.693 52.7613 132.465C52.6306 132.237 52.5556 131.981 52.5423 131.719C52.5291 131.457 52.578 131.195 52.6851 130.955L59.3964 119.575C57.1148 117.662 54.4981 116.187 51.6784 115.223L45.3026 126.603C44.4409 128.155 43.9924 129.902 44.0001 131.676C44.0078 133.45 44.4713 135.192 45.3465 136.736C46.2216 138.281 47.4791 139.576 48.9989 140.497C50.5187 141.419 52.25 141.936 54.0274 142H86.9129V137.649C86.862 130.832 85.1936 124.124 82.044 118.073C78.8945 112.023 74.3533 106.803 68.7923 102.839L74.1614 93.8021C81.2766 98.7095 87.0977 105.259 91.1292 112.893C95.1606 120.528 97.2829 129.02 97.3155 137.649V142H124.832V137.649C124.841 124.153 121.47 110.868 115.023 99.0021C108.577 87.136 99.2603 77.0647 87.9196 69.7032L98.6577 51.629C98.814 51.4212 99.0167 51.2525 99.2496 51.1363C99.4826 51.0201 99.7395 50.9596 100 50.9596C100.26 50.9596 100.517 51.0201 100.75 51.1363C100.983 51.2525 101.186 51.4212 101.342 51.629L147.315 130.955C147.432 131.22 147.479 131.512 147.449 131.801C147.419 132.09 147.314 132.366 147.145 132.603C146.976 132.839 146.748 133.028 146.483 133.149C146.219 133.271 145.927 133.322 145.637 133.298H134.899V142H145.973C147.75 141.936 149.481 141.419 151.001 140.497C152.521 139.576 153.778 138.281 154.654 136.736C155.529 135.192 155.992 133.45 156 131.676C156.008 129.902 155.559 128.155 154.697 126.603L109.06 47.2778Z" fill="#221F20"/>
</svg>
