<svg width="200" height="200" viewBox="0 0 200 200" fill="none" xmlns="http://www.w3.org/2000/svg">
<g clip-path="url(#clip0_619_3451)">
<mask id="mask0_619_3451" style="mask-type:alpha" maskUnits="userSpaceOnUse" x="36" y="20" width="128" height="159">
<path d="M40.9073 166.513L36.0062 35.2714C35.8437 30.9363 39.1507 27.2625 43.4588 26.9928L154.549 20.0159C158.934 19.7402 162.71 23.0893 162.985 27.4958C162.995 27.6616 163 27.8279 163 27.9943V171.006C163 175.421 159.439 179 155.045 179C154.926 179 154.807 178.997 154.688 178.992L48.5006 174.199C44.365 174.013 41.0629 170.67 40.9073 166.513V166.513Z" fill="white"/>
</mask>
<g mask="url(#mask0_619_3451)">
<path d="M40.9073 166.513L36.0062 35.2714C35.8437 30.9363 39.1507 27.2625 43.4588 26.9928L154.549 20.0159C158.934 19.7402 162.71 23.0893 162.985 27.4958C162.995 27.6616 163 27.8279 163 27.9943V171.006C163 175.421 159.439 179 155.045 179C154.926 179 154.807 178.997 154.688 178.992L48.5006 174.199C44.365 174.013 41.0629 170.67 40.9073 166.513V166.513Z" fill="#FF4785"/>
<path d="M129.78 39.5436L130.539 21.2043L145.795 20L146.452 38.9123C146.46 39.1397 146.404 39.3647 146.289 39.5607C146.174 39.7568 146.005 39.9156 145.803 40.0186C145.601 40.1215 145.374 40.1642 145.149 40.1417C144.923 40.1191 144.709 40.0323 144.532 39.8913L138.649 35.2335L131.683 40.5431C131.504 40.6801 131.289 40.7629 131.065 40.7819C130.841 40.8009 130.615 40.7553 130.416 40.6505C130.216 40.5457 130.05 40.3859 129.938 40.1899C129.825 39.9939 129.77 39.7698 129.78 39.5436V39.5436ZM110.269 79.9291C110.269 83.0395 131.118 81.549 133.916 79.3642C133.916 58.1847 122.607 47.055 101.897 47.055C81.1883 47.055 69.5852 58.3575 69.5852 75.3113C69.5852 104.84 109.241 105.405 109.241 121.511C109.241 126.033 107.038 128.717 102.191 128.717C95.8758 128.717 93.3785 125.475 93.6723 114.456C93.6723 112.065 69.5852 111.32 68.8505 114.456C66.9806 141.161 83.538 148.864 102.485 148.864C120.844 148.864 135.238 139.031 135.238 121.229C135.238 89.5813 94.9945 90.429 94.9945 74.7464C94.9945 68.3888 99.6943 67.5412 102.485 67.5412C105.423 67.5412 110.71 68.0617 110.269 79.9291V79.9291Z" fill="white"/>
</g>
</g>
<defs>
<clipPath id="clip0_619_3451">
<rect width="127" height="159" fill="white" transform="translate(36 20)"/>
</clipPath>
</defs>
</svg>
