<svg width="200" height="200" viewBox="0 0 200 200" fill="none" xmlns="http://www.w3.org/2000/svg">
<path d="M13 100.841C13.042 111.363 21.6349 119.979 32.1947 119.979C42.7875 119.966 51.3727 111.409 51.3895 100.847V98.1322C51.4207 92.0572 58.0366 88.2941 63.2979 91.3594C64.1068 91.8306 64.8258 92.4416 65.4213 93.1638H77.834C75.5661 84.8126 67.9704 79.0102 59.2929 79C48.6995 79.0167 40.1173 87.5766 40.1041 98.1382V100.841C40.0975 105.195 36.5554 108.721 32.1888 108.721C27.8263 108.714 24.292 105.19 24.2854 100.841C24.2854 99.5959 23.2732 98.5866 22.0247 98.5866H15.2547C14.008 98.5902 13 99.5983 13 100.841ZM86.4509 119.979C77.783 119.947 70.2035 114.148 67.9278 105.809H80.3225C84.1381 110.522 91.6397 109.35 93.8254 103.699C94.1774 102.789 94.3567 101.822 94.3543 100.847V98.1322C94.3705 87.5706 102.956 79.0132 113.549 79C124.001 79 132.522 87.3704 132.738 97.7317L132.798 100.841C132.829 106.916 139.445 110.679 144.706 107.614C145.515 107.143 146.234 106.531 146.83 105.809H159.242C156.977 114.161 149.384 119.966 140.707 119.979C130.147 119.979 121.554 111.357 121.512 100.847L121.452 98.0366V97.917C121.326 93.6547 117.826 90.2629 113.549 90.2581C109.187 90.2647 105.652 93.7892 105.646 98.1382V100.841C105.632 111.405 97.0461 119.966 86.4509 119.979ZM161.677 93.1698C165.492 88.4573 172.994 89.6298 175.18 95.2809C175.532 96.1927 175.712 97.1613 175.709 98.1382C175.709 99.3836 176.721 100.392 177.969 100.392H184.745C185.991 100.389 187 99.3812 187 98.1382C186.987 87.5742 178.4 79.0132 167.805 79C159.126 79.0108 151.529 84.8162 149.264 93.1698H161.677Z" fill="black"/>
</svg>
