<svg width="200" height="200" viewBox="0 0 200 200" fill="none" xmlns="http://www.w3.org/2000/svg">
<path d="M175.859 9H23.1406C15.331 9 9 15.331 9 23.1406V175.859C9 183.669 15.331 190 23.1406 190H175.859C183.669 190 190 183.669 190 175.859V23.1406C190 15.331 183.669 9 175.859 9Z" fill="#3178C6"/>
<path fill-rule="evenodd" clip-rule="evenodd" d="M115.421 150.742V170.27C118.597 171.898 122.353 173.118 126.69 173.932C131.026 174.746 135.596 175.152 140.401 175.152C145.083 175.152 149.532 174.705 153.746 173.81C157.959 172.915 161.655 171.44 164.83 169.386C168.006 167.331 170.521 164.646 172.374 161.33C174.226 158.015 175.152 153.916 175.152 149.034C175.152 145.495 174.623 142.392 173.564 139.727C172.506 137.062 170.979 134.692 168.983 132.618C166.989 130.543 164.596 128.682 161.808 127.034C159.019 125.387 155.873 123.83 152.371 122.366C149.806 121.308 147.506 120.281 145.47 119.284C143.434 118.287 141.703 117.271 140.279 116.233C138.853 115.195 137.754 114.097 136.98 112.937C136.207 111.778 135.82 110.466 135.82 109.001C135.82 107.658 136.166 106.449 136.858 105.37C137.55 104.292 138.528 103.367 139.79 102.594C141.052 101.82 142.599 101.221 144.432 100.793C146.264 100.366 148.3 100.153 150.539 100.153C152.168 100.153 153.888 100.275 155.7 100.519C157.512 100.763 159.334 101.139 161.167 101.648C162.998 102.156 164.779 102.797 166.51 103.57C168.24 104.343 169.839 105.238 171.305 106.255V88.0086C168.332 86.8696 165.085 86.0254 161.563 85.476C158.041 84.9267 154 84.6523 149.44 84.6523C144.798 84.6523 140.401 85.1508 136.248 86.1477C132.095 87.1439 128.44 88.7001 125.285 90.8155C122.129 92.9317 119.636 95.6269 117.803 98.9019C115.971 102.177 115.055 106.092 115.055 110.649C115.055 116.467 116.734 121.43 120.094 125.539C123.453 129.648 128.552 133.126 135.392 135.974C138.08 137.073 140.584 138.151 142.905 139.209C145.226 140.267 147.231 141.365 148.921 142.504C150.611 143.643 151.944 144.884 152.921 146.226C153.898 147.569 154.387 149.095 154.387 150.804C154.387 152.064 154.081 153.234 153.471 154.313C152.86 155.39 151.933 156.326 150.692 157.12C149.45 157.913 147.903 158.533 146.05 158.98C144.198 159.428 142.029 159.652 139.546 159.652C135.311 159.652 131.118 158.91 126.965 157.424C122.811 155.939 118.963 153.712 115.421 150.742V150.742ZM82.872 102.146H107.984V86.0664H37.9883V102.146H62.9781V173.738H82.872V102.146Z" fill="white"/>
</svg>
