<svg width="200" height="200" viewBox="0 0 200 200" fill="none" xmlns="http://www.w3.org/2000/svg">
<g clip-path="url(#clip0_619_3421)">
<path d="M50.7396 26H148.26C151.773 25.9967 155.251 26.685 158.497 28.0256C161.743 29.3662 164.692 31.3326 167.176 33.8125C169.659 36.2924 171.629 39.2369 172.971 42.4777C174.314 45.7184 175.003 49.1917 175 52.6987V146.301C175.003 149.808 174.314 153.282 172.971 156.522C171.629 159.763 169.659 162.708 167.176 165.188C164.692 167.667 161.743 169.634 158.497 170.974C155.251 172.315 151.773 173.003 148.26 173H50.7396C47.2272 173.003 43.7486 172.315 40.5029 170.974C37.2572 169.634 34.3081 167.667 31.8245 165.188C29.3408 162.708 27.3713 159.763 26.0287 156.522C24.6861 153.282 23.9967 149.808 24 146.301V52.6987C23.9967 49.1917 24.6861 45.7184 26.0287 42.4777C27.3713 39.2369 29.3408 36.2924 31.8245 33.8125C34.3081 31.3326 37.2572 29.3662 40.5029 28.0256C43.7486 26.685 47.2272 25.9967 50.7396 26V26Z" fill="#470137"/>
<path d="M103.401 64.6345L84.5259 95.7306L104.659 128.711C104.792 128.939 104.837 129.207 104.785 129.465C104.722 129.717 104.47 129.528 104.093 129.591H89.6851C88.6784 129.591 87.9863 129.528 87.5459 128.9C86.2247 126.261 84.8405 123.686 83.5192 121.047C82.198 118.409 80.7509 115.833 79.2409 113.132C77.7309 110.431 76.2209 107.729 74.7109 104.965H74.5851C73.2638 107.667 71.8167 110.368 70.3697 113.069C68.9226 115.77 67.4755 118.472 66.0913 121.11C64.7072 123.749 63.1972 126.45 61.7501 129.026C61.4984 129.654 60.9951 129.717 60.303 129.717H46.4613C46.2097 129.717 46.0209 129.842 46.0209 129.528C45.9928 129.41 45.9895 129.288 46.0112 129.169C46.0328 129.05 46.079 128.937 46.1467 128.837L65.7138 96.7986L46.6501 64.5717C46.4613 64.3204 46.3984 64.0691 46.5242 63.9435C46.601 63.8539 46.6983 63.7843 46.8078 63.7405C46.9174 63.6967 47.036 63.6801 47.1534 63.6922H61.4355C61.7331 63.6986 62.0288 63.7408 62.3163 63.8178C62.5684 63.9532 62.7842 64.1471 62.9455 64.3832C64.1409 67.0845 65.5251 69.7858 66.9722 72.487C68.4192 75.1883 69.9292 77.8268 71.5022 80.4652C73.0751 83.1037 74.3963 85.7422 75.7176 88.4435H75.8434C77.1647 85.6794 78.5488 82.9781 79.933 80.3396C81.3172 77.7011 82.7642 75.0627 84.2113 72.4242C85.6584 69.7858 87.0426 67.0845 88.4267 64.5088C88.4745 64.2615 88.6082 64.039 88.8042 63.8806C89.0534 63.7434 89.3432 63.6989 89.6222 63.755H102.898C102.972 63.7383 103.049 63.7365 103.124 63.7496C103.199 63.7627 103.271 63.7905 103.335 63.8313C103.399 63.8722 103.455 63.9253 103.499 63.9877C103.542 64.05 103.573 64.1204 103.59 64.1947C103.653 64.2576 103.527 64.5088 103.401 64.6345V64.6345ZM132.468 130.91C127.805 130.987 123.183 130.021 118.941 128.083C114.995 126.241 111.688 123.266 109.441 119.54C107.113 115.708 105.98 110.933 105.98 105.217C105.917 100.568 107.112 95.9877 109.441 91.9614C111.829 87.8692 115.287 84.5032 119.445 82.2242C123.849 79.7742 129.134 78.5806 135.363 78.5806C135.804 78.5757 136.245 78.5966 136.684 78.6435C137.25 78.7063 137.879 78.7063 138.634 78.7691V58.9178C138.634 58.4781 138.823 58.2268 139.263 58.2268H152.035C152.177 58.2077 152.32 58.2424 152.436 58.3239C152.553 58.4054 152.634 58.5277 152.665 58.6665V118.597C152.665 119.728 152.728 120.984 152.79 122.367C152.853 123.749 152.979 124.942 153.042 126.01C153.056 126.222 153.002 126.433 152.889 126.614C152.776 126.794 152.61 126.934 152.413 127.015C149.118 128.398 145.678 129.41 142.158 130.031C138.96 130.606 135.718 130.901 132.468 130.91V130.91ZM138.634 118.346V90.705C138.074 90.57 137.507 90.4651 136.935 90.3909C136.243 90.3281 135.551 90.2653 134.859 90.2653C132.393 90.2375 129.956 90.7974 127.75 91.8986C125.6 92.9682 123.759 94.5684 122.402 96.5473C121.018 98.5576 120.325 101.259 120.325 104.526C120.271 106.73 120.634 108.926 121.395 110.996C122.004 112.67 122.97 114.192 124.226 115.456C125.439 116.612 126.904 117.472 128.505 117.969C130.19 118.52 131.953 118.796 133.727 118.786C134.67 118.786 135.551 118.723 136.369 118.66C137.138 118.715 137.91 118.608 138.634 118.346V118.346Z" fill="#FF61F6"/>
</g>
<defs>
<clipPath id="clip0_619_3421">
<rect width="151" height="147" fill="white" transform="translate(24 26)"/>
</clipPath>
</defs>
</svg>
