<svg width="34" height="40" viewBox="0 0 34 40" fill="none" xmlns="http://www.w3.org/2000/svg">
<path fill-rule="evenodd" clip-rule="evenodd" d="M9 2C9 0.895431 9.89543 0 11 0H22C28.6274 0 34 5.37258 34 12C34 17.5915 30.1757 22.2898 25 23.6219V29C25 30.18 25.3704 31.9944 26.4231 33.4564C27.4023 34.8164 29.0518 36 32 36C33.1046 36 34 36.8954 34 38C34 39.1046 33.1046 40 32 40C27.7482 40 24.8977 38.1836 23.1769 35.7936C21.5296 33.5056 21 30.82 21 29V24H13V38C13 39.1046 12.1046 40 11 40C9.89543 40 9 39.1046 9 38V24H8C3.58172 24 0 20.4183 0 16C0 11.5817 3.58172 8 8 8H9V2ZM9 12H8C5.79086 12 4 13.7909 4 16C4 18.2091 5.79086 20 8 20H9L9 12ZM13 12.2V20H20.8C20.0046 16.0817 16.9183 12.9954 13 12.2ZM24.7782 19.5044C23.7174 13.6087 18.9652 8.99504 13 8.14178V8L13 4H22C26.4183 4 30 7.58172 30 12C30 15.4414 27.827 18.3753 24.7782 19.5044Z" fill="url(#paint0_linear)"/>
<path fill-rule="evenodd" clip-rule="evenodd" d="M9 2C9 0.895431 9.89543 0 11 0H22C28.6274 0 34 5.37258 34 12C34 17.5915 30.1757 22.2898 25 23.6219V29C25 30.18 25.3704 31.9944 26.4231 33.4564C27.4023 34.8164 29.0518 36 32 36C33.1046 36 34 36.8954 34 38C34 39.1046 33.1046 40 32 40C27.7482 40 24.8977 38.1836 23.1769 35.7936C21.5296 33.5056 21 30.82 21 29V24H13V38C13 39.1046 12.1046 40 11 40C9.89543 40 9 39.1046 9 38V24H8C3.58172 24 0 20.4183 0 16C0 11.5817 3.58172 8 8 8H9V2ZM9 12H8C5.79086 12 4 13.7909 4 16C4 18.2091 5.79086 20 8 20H9L9 12ZM13 12.2V20H20.8C20.0046 16.0817 16.9183 12.9954 13 12.2ZM24.7782 19.5044C23.7174 13.6087 18.9652 8.99504 13 8.14178V8L13 4H22C26.4183 4 30 7.58172 30 12C30 15.4414 27.827 18.3753 24.7782 19.5044Z" fill="url(#paint1_linear)"/>
<path fill-rule="evenodd" clip-rule="evenodd" d="M9 2C9 0.895431 9.89543 0 11 0H22C28.6274 0 34 5.37258 34 12C34 17.5915 30.1757 22.2898 25 23.6219V29C25 30.18 25.3704 31.9944 26.4231 33.4564C27.4023 34.8164 29.0518 36 32 36C33.1046 36 34 36.8954 34 38C34 39.1046 33.1046 40 32 40C27.7482 40 24.8977 38.1836 23.1769 35.7936C21.5296 33.5056 21 30.82 21 29V24H13V38C13 39.1046 12.1046 40 11 40C9.89543 40 9 39.1046 9 38V24H8C3.58172 24 0 20.4183 0 16C0 11.5817 3.58172 8 8 8H9V2ZM9 12H8C5.79086 12 4 13.7909 4 16C4 18.2091 5.79086 20 8 20H9L9 12ZM13 12.2V20H20.8C20.0046 16.0817 16.9183 12.9954 13 12.2ZM24.7782 19.5044C23.7174 13.6087 18.9652 8.99504 13 8.14178V8L13 4H22C26.4183 4 30 7.58172 30 12C30 15.4414 27.827 18.3753 24.7782 19.5044Z" fill="url(#paint2_linear)"/>
<defs>
<linearGradient id="paint0_linear" x1="7" y1="-8" x2="29.5" y2="40" gradientUnits="userSpaceOnUse">
<stop stop-color="#FF0000"/>
<stop offset="0.505208" stop-color="#FF9A2B"/>
<stop offset="1" stop-color="#FAFF00"/>
</linearGradient>
<linearGradient id="paint1_linear" x1="49" y1="13" x2="19.5" y2="22.5" gradientUnits="userSpaceOnUse">
<stop stop-color="#00FFE0" stop-opacity="0.79"/>
<stop offset="0.528699" stop-color="#A2FF59" stop-opacity="0.79"/>
<stop offset="1" stop-color="#FFD600" stop-opacity="0.11"/>
</linearGradient>
<linearGradient id="paint2_linear" x1="-1.5" y1="40" x2="34" y2="2" gradientUnits="userSpaceOnUse">
<stop stop-color="#9E00FF"/>
<stop offset="0.1875" stop-color="#FF66D4" stop-opacity="0.984375"/>
<stop offset="0.519907" stop-color="#E9ACFF" stop-opacity="0"/>
</linearGradient>
</defs>
</svg>
